<svg width="185" height="185" xmlns="http://www.w3.org/2000/svg" xmlns:xlink="http://www.w3.org/1999/xlink" xml:space="preserve" overflow="hidden"><defs><clipPath id="clip0"><rect x="117" y="219" width="185" height="185"/></clipPath></defs><g clip-path="url(#clip0)" transform="translate(-117 -219)"><path d="M135.137 85.002C125.566 85.002 118.046 77.2538 118.046 67.9104 118.046 58.567 125.794 50.8189 135.137 50.8189 144.708 50.8189 152.229 58.567 152.229 67.9104 152.229 77.2538 144.481 85.002 135.137 85.002ZM173.65 57.1997C172.739 54.0093 171.599 51.0468 170.004 48.3121L173.65 37.6014 165.446 29.3975 154.735 33.0437C152.001 31.4484 149.038 30.309 145.848 29.3975L140.834 19.3704 129.44 19.3704 124.426 29.3975C121.236 30.309 118.274 31.4484 115.539 33.0437L104.828 29.3975 96.6242 37.6014 100.27 48.3121C98.6752 51.0468 97.5358 54.0093 96.6242 57.1997L86.5972 62.2132 86.5972 73.6076 96.6242 78.6211C97.5358 81.8115 98.6752 84.7741 100.27 87.5087L96.6242 98.2194 104.6 106.195 115.311 102.549C118.046 104.144 121.008 105.284 124.199 106.195L129.212 116.223 140.606 116.223 145.62 106.195C148.81 105.284 151.773 104.144 154.508 102.549L165.218 106.195 173.422 98.2194 169.776 87.5087C171.371 84.7741 172.739 81.5836 173.65 78.6211L183.677 73.6076 183.677 62.2132 173.65 57.1997Z" fill="#FFFFFF" transform="matrix(1 0 0 1.00002 97.4002 202.476)"/><path d="M83.6346 167.953C74.0634 167.953 66.5431 160.205 66.5431 150.861 66.5431 141.29 74.2913 133.77 83.6346 133.77 93.2059 133.77 100.726 141.518 100.726 150.861 100.726 160.205 93.2059 167.953 83.6346 167.953L83.6346 167.953ZM118.501 131.263 122.148 120.552 113.944 112.348 103.233 115.995C100.498 114.399 97.3079 113.26 94.3453 112.348L89.3318 102.321 77.9375 102.321 72.9239 112.348C69.7335 113.26 66.771 114.399 64.0363 115.995L53.3256 112.348 45.3496 120.324 48.7679 131.035C47.1727 133.77 46.0332 136.96 45.1217 139.923L35.0946 144.936 35.0946 156.331 45.1217 161.344C46.0332 164.535 47.1727 167.497 48.7679 170.232L45.3496 180.943 53.3256 188.919 64.0363 185.5C66.771 187.095 69.7335 188.235 72.9239 189.146L77.9375 199.174 89.3318 199.174 94.3453 189.146C97.5358 188.235 100.498 187.095 103.233 185.5L113.944 189.146 121.92 180.943 118.501 170.46C120.097 167.725 121.236 164.763 122.148 161.572L132.175 156.559 132.175 145.164 122.148 140.151C121.236 136.96 120.097 133.998 118.501 131.263Z" fill="#FFFFFF" transform="matrix(1 0 0 1.00002 97.4002 202.476)"/></g></svg>