<svg width="439" height="99" xmlns="http://www.w3.org/2000/svg" xmlns:xlink="http://www.w3.org/1999/xlink" xml:space="preserve" overflow="hidden"><defs><clipPath id="clip0"><rect x="422" y="304" width="439" height="99"/></clipPath></defs><g clip-path="url(#clip0)" transform="translate(-422 -304)"><path d="M439.868 35.3054C439.948 54.7566 454.651 64.5725 469.194 64.4926 481.365 64.4926 494.192 58.1084 496.325 41.9292 491.337 41.9292 486.849 41.9292 481.941 41.9292 480.385 48.0528 475.397 51.165 469.194 51.165 460.535 51.0851 454.97 43.725 454.97 35.3054 454.97 25.8299 460.614 19.3867 469.194 19.3867 475.317 19.3867 479.649 21.9987 481.702 27.8063 486.689 27.8063 491.097 27.8063 496.085 27.8063 493.872 12.5232 481.045 6.05914 469.194 6.05914 454.651 6.05914 439.948 15.875 439.868 35.3054ZM562.667 35.3853C562.667-4.15273 503.994-4.15273 503.994 35.3853 503.994 75.0275 562.667 75.0275 562.667 35.3853ZM519.037 35.3853C519.037 14.7983 547.724 14.7983 547.724 35.3853 547.724 56.1529 519.037 56.1529 519.037 35.3853ZM617.662 63.9924 622.889 63.9924 622.889 6.71909C617.902 6.71909 612.935 6.71909 607.947 6.71909L607.947 34.7462 579.02 6.47942 573.713 6.47942 573.713 63.9125C578.68 63.9125 583.747 63.9125 588.815 63.9125L588.815 35.8055ZM645.845 19.7861 645.845 63.9125C650.673 63.9125 655.501 63.9125 660.309 63.9125L660.309 19.7861 674.296 19.7861C674.296 15.3783 674.296 11.047 674.296 6.71909L631.802 6.71909C631.802 11.047 631.802 15.3783 631.802 19.7861ZM719.718 63.9125 734.022 63.9125 734.022 61.8007 708.207 5.97925 701.903 5.97925 676.168 61.8007 676.168 63.9125 690.472 63.9125 693.824 56.7329 716.366 56.7329ZM711.639 44.2251 698.551 44.2251 705.015 29.1817ZM738.117 35.3054C738.197 54.7566 752.9 64.5725 767.443 64.4926 779.614 64.4926 792.441 58.1084 794.574 41.9292 789.589 41.9292 785.098 41.9292 780.19 41.9292 778.634 48.0528 773.646 51.165 767.443 51.165 758.787 51.0851 753.219 43.725 753.219 35.3054 753.219 25.8299 758.867 19.3867 767.443 19.3867 773.567 19.3867 777.898 21.9987 779.951 27.8063 784.939 27.8063 789.35 27.8063 794.334 27.8063 792.122 12.5232 779.294 6.05914 767.443 6.05914 752.9 6.05914 738.197 15.875 738.117 35.3054ZM814.174 19.7861 814.174 63.9125C819.003 63.9125 823.831 63.9125 828.638 63.9125L828.638 19.7861 842.622 19.7861C842.622 15.3783 842.622 11.047 842.622 6.71909L800.128 6.71909C800.128 11.047 800.128 15.3783 800.128 19.7861Z" stroke="#FFFFFF" stroke-width="3.06438" fill="none" transform="matrix(1 0 0 1.00024 -0.354231 315.695)"/></g></svg>