<svg width="217" height="217" xmlns="http://www.w3.org/2000/svg" xmlns:xlink="http://www.w3.org/1999/xlink" xml:space="preserve" overflow="hidden"><defs><clipPath id="clip0"><rect x="674" y="120" width="217" height="217"/></clipPath></defs><g clip-path="url(#clip0)" transform="translate(-674 -120)"><path d="M881.958 194.594 886.479 194.594 886.479 199.115 881.958 199.115Z" fill="#FFFFFF"/><path d="M872.917 194.594 877.438 194.594 877.438 199.115 872.917 199.115Z" fill="#FFFFFF"/><path d="M845.792 194.594 850.312 194.594 850.312 199.115 845.792 199.115Z" fill="#FFFFFF"/><path d="M854.833 194.594 859.354 194.594 859.354 199.115 854.833 199.115Z" fill="#FFFFFF"/><path d="M836.75 194.594 841.271 194.594 841.271 199.115 836.75 199.115Z" fill="#FFFFFF"/><path d="M863.875 194.594 868.396 194.594 868.396 199.115 863.875 199.115Z" fill="#FFFFFF"/><path d="M827.708 194.594 832.229 194.594 832.229 199.115 827.708 199.115Z" fill="#FFFFFF"/><path d="M827.708 176.51 832.229 176.51 832.229 181.031 827.708 181.031Z" fill="#FFFFFF"/><path d="M827.708 185.552 832.229 185.552 832.229 190.073 827.708 190.073Z" fill="#FFFFFF"/><path d="M827.708 149.385 832.229 149.385 832.229 153.906 827.708 153.906Z" fill="#FFFFFF"/><path d="M827.708 167.469 832.229 167.469 832.229 171.99 827.708 171.99Z" fill="#FFFFFF"/><path d="M827.708 158.427 832.229 158.427 832.229 162.948 827.708 162.948Z" fill="#FFFFFF"/><path d="M827.708 140.344 832.229 140.344 832.229 144.865 827.708 144.865Z" fill="#FFFFFF"/><path d="M872.917 140.344 877.438 140.344 877.438 144.865 872.917 144.865Z" fill="#FFFFFF"/><path d="M854.833 140.344 859.354 140.344 859.354 144.865 854.833 144.865Z" fill="#FFFFFF"/><path d="M845.792 140.344 850.312 140.344 850.312 144.865 845.792 144.865Z" fill="#FFFFFF"/><path d="M836.75 140.344 841.271 140.344 841.271 144.865 836.75 144.865Z" fill="#FFFFFF"/><path d="M863.875 140.344 868.396 140.344 868.396 144.865 863.875 144.865Z" fill="#FFFFFF"/><path d="M881.958 140.344 886.479 140.344 886.479 144.865 881.958 144.865Z" fill="#FFFFFF"/><path d="M881.958 158.427 886.479 158.427 886.479 162.948 881.958 162.948Z" fill="#FFFFFF"/><path d="M881.958 176.51 886.479 176.51 886.479 181.031 881.958 181.031Z" fill="#FFFFFF"/><path d="M881.958 167.469 886.479 167.469 886.479 171.99 881.958 171.99Z" fill="#FFFFFF"/><path d="M881.958 185.552 886.479 185.552 886.479 190.073 881.958 190.073Z" fill="#FFFFFF"/><path d="M881.958 149.385 886.479 149.385 886.479 153.906 881.958 153.906Z" fill="#FFFFFF"/><path d="M703.388 165.17 703.388 169.729 820.927 169.691 820.927 165.17 703.388 165.17Z" fill="#FFFFFF"/><path d="M857.103 187.812 861.624 187.812 861.624 169.691 861.624 165.17 857.103 165.17 839.01 165.17 839.01 169.691 857.103 169.691 857.103 187.812Z" fill="#FFFFFF"/><path d="M703.388 230.76 703.388 264.655 703.388 269.176 707.909 269.176 857.103 269.176 861.624 269.176 861.624 264.655 861.624 205.896 857.103 205.896 857.103 264.655 707.909 264.655 707.909 230.76 703.388 230.76Z" fill="#FFFFFF"/><path d="M696.604 162.907C696.604 160.41 698.628 158.386 701.125 158.386L820.927 158.386 820.927 153.866 701.125 153.866C696.138 153.88 692.098 157.92 692.083 162.907L692.083 169.729 696.604 169.729Z" fill="#FFFFFF"/><path d="M868.396 162.907 868.396 187.812 872.917 187.812 872.917 162.907C872.902 157.92 868.862 153.88 863.875 153.866L839.01 153.866 839.01 158.386 863.875 158.386C866.372 158.386 868.396 160.41 868.396 162.907Z" fill="#FFFFFF"/><path d="M868.396 271.448C868.396 273.945 866.372 275.969 863.875 275.969L701.125 275.969C698.628 275.969 696.604 273.945 696.604 271.448L696.604 230.76 692.083 230.76 692.083 271.448C692.099 276.435 696.138 280.474 701.125 280.49L766.677 280.49 766.677 303.094 741.812 303.094 741.812 307.615 823.188 307.615 823.188 303.094 798.323 303.094 798.323 280.49 863.875 280.49C868.862 280.474 872.901 276.435 872.917 271.448L872.917 205.896 868.396 205.896ZM793.802 303.094 771.198 303.094 771.198 280.49 793.802 280.49Z" fill="#FFFFFF"/><path d="M737.292 176.51 678.521 176.51 678.521 223.979 737.292 223.979ZM732.771 219.458 683.042 219.458 683.042 181.031 732.771 181.031Z" fill="#FFFFFF"/><path d="M694.344 190.073 721.469 190.073 721.469 194.594 694.344 194.594Z" fill="#FFFFFF"/><path d="M694.344 203.635 712.427 203.635 712.427 208.156 694.344 208.156Z" fill="#FFFFFF"/><path d="M782.5 248.844C799.978 248.844 814.146 234.675 814.146 217.198 814.146 199.72 799.978 185.552 782.5 185.552 765.022 185.552 750.854 199.72 750.854 217.198 750.873 234.668 765.03 248.825 782.5 248.844ZM766.706 239.208C767.036 230.485 774.375 223.682 783.098 224.012 791.357 224.324 797.981 230.948 798.294 239.208 788.869 246.028 776.131 246.028 766.706 239.208ZM775.719 212.677C775.719 208.932 778.755 205.896 782.5 205.896 786.245 205.896 789.281 208.932 789.281 212.677 789.281 216.422 786.245 219.458 782.5 219.458 778.755 219.458 775.719 216.422 775.719 212.677ZM782.5 190.073C797.456 190.05 809.599 202.155 809.622 217.111 809.632 223.957 807.049 230.554 802.392 235.573 800.973 228.973 796.382 223.501 790.129 220.957 794.732 216.741 795.046 209.592 790.83 204.989 786.614 200.386 779.465 200.072 774.862 204.288 770.259 208.503 769.945 215.652 774.161 220.256 774.384 220.5 774.618 220.734 774.862 220.957 768.612 223.504 764.026 228.975 762.608 235.573 752.435 224.61 753.075 207.476 764.038 197.303 769.057 192.646 775.653 190.062 782.5 190.073Z" fill="#FFFFFF"/><path d="M845.222 236.656C845.222 236.466 845.032 236.276 844.652 236.086L822.057 228.5 821.867 228.5C821.46 228.527 821.135 228.852 821.108 229.259L821.108 229.449 828.515 252.234C828.697 252.59 829.065 252.811 829.465 252.804 829.655 252.804 829.844 252.614 830.034 252.234L832.871 244.481C832.879 244.471 832.893 244.469 832.903 244.477 832.905 244.478 832.906 244.479 832.907 244.481L841.804 253.365 845.792 249.377 836.895 240.48C836.884 240.471 836.882 240.456 836.891 240.445 836.892 240.444 836.893 240.443 836.895 240.442L844.661 237.605C845.014 237.421 845.231 237.053 845.222 236.656Z" fill="#FFFFFF"/></g></svg>