<svg width="201" height="201" xmlns="http://www.w3.org/2000/svg" xmlns:xlink="http://www.w3.org/1999/xlink" xml:space="preserve" overflow="hidden"><defs><clipPath id="clip0"><rect x="684" y="248" width="201" height="201"/></clipPath></defs><g clip-path="url(#clip0)" transform="translate(-684 -248)"><path d="M756.234 339.078C756.234 355.828 769.844 369.438 786.594 369.438 803.344 369.438 816.953 355.828 816.953 339.078 816.953 322.328 803.344 308.719 786.594 308.719 769.844 308.719 756.234 322.328 756.234 339.078ZM803.553 348.081 803.553 354.572 769.425 354.572 769.425 348.081C769.425 346.825 770.053 345.569 771.1 344.731 773.612 342.847 776.334 341.591 779.475 340.753 781.778 340.125 784.081 339.706 786.594 339.706 788.897 339.706 791.409 340.125 793.713 340.753 796.644 341.591 799.575 342.847 802.088 344.731 802.925 345.569 803.553 346.825 803.553 348.081ZM786.594 320.444C791.2 320.444 795.178 324.212 795.178 329.028L795.178 329.028C795.178 333.634 791.409 337.612 786.594 337.612 781.987 337.612 778.009 333.844 778.009 329.028 778.009 324.212 781.778 320.444 786.594 320.444Z" fill="#FFFFFF"/><path d="M874.531 315 880.812 315 880.812 321.281 874.531 321.281Z" fill="#FFFFFF"/><path d="M838.728 315 844.8 315 844.8 321.281 838.728 321.281Z" fill="#FFFFFF"/><path d="M850.872 315 856.944 315 856.944 321.281 850.872 321.281Z" fill="#FFFFFF"/><path d="M862.806 315 868.878 315 868.878 321.281 862.806 321.281Z" fill="#FFFFFF"/><path d="M826.375 315 832.656 315 832.656 321.281 826.375 321.281Z" fill="#FFFFFF"/><path d="M826.375 289.875 832.656 289.875 832.656 296.156 826.375 296.156Z" fill="#FFFFFF"/><path d="M826.375 302.438 832.656 302.438 832.656 308.719 826.375 308.719Z" fill="#FFFFFF"/><path d="M826.375 277.312 832.656 277.312 832.656 283.594 826.375 283.594Z" fill="#FFFFFF"/><path d="M826.375 264.75 832.656 264.75 832.656 271.031 826.375 271.031Z" fill="#FFFFFF"/><path d="M850.872 264.75 856.944 264.75 856.944 271.031 850.872 271.031Z" fill="#FFFFFF"/><path d="M862.806 264.75 868.878 264.75 868.878 271.031 862.806 271.031Z" fill="#FFFFFF"/><path d="M838.728 264.75 844.8 264.75 844.8 271.031 838.728 271.031Z" fill="#FFFFFF"/><path d="M874.531 264.75 880.812 264.75 880.812 271.031 874.531 271.031Z" fill="#FFFFFF"/><path d="M874.531 277.312 880.812 277.312 880.812 283.594 874.531 283.594Z" fill="#FFFFFF"/><path d="M874.531 289.875 880.812 289.875 880.812 296.156 874.531 296.156Z" fill="#FFFFFF"/><path d="M874.531 302.438 880.812 302.438 880.812 308.719 874.531 308.719Z" fill="#FFFFFF"/><path d="M830.562 374.672C830.772 375.091 831.191 375.3 831.609 375.3 831.819 375.3 832.028 375.091 832.237 374.672L835.378 366.087 845.219 375.928 849.616 371.531 839.775 361.691 848.359 358.55C848.778 358.341 848.987 357.922 848.987 357.503 848.987 357.294 848.778 357.084 848.359 356.875L823.444 348.5C823.444 348.5 823.234 348.5 823.234 348.5L823.234 348.5C822.816 348.5 822.397 348.919 822.397 349.337 822.397 349.337 822.397 349.547 822.397 349.547L830.562 374.672Z" fill="#FFFFFF"/><path d="M744.719 298.25 688.188 298.25 688.188 342.219 744.719 342.219 744.719 298.25ZM738.438 335.938 694.469 335.938 694.469 304.531 738.438 304.531 738.438 335.938Z" fill="#FFFFFF"/><path d="M702.844 309.766 727.969 309.766 727.969 316.047 702.844 316.047Z" fill="#FFFFFF"/><path d="M702.844 322.328 719.594 322.328 719.594 328.609 702.844 328.609Z" fill="#FFFFFF"/><path d="M861.969 279.406 836.844 279.406 836.844 291.969 857.781 291.969 857.781 310.812 870.344 310.812 870.344 287.781C870.344 283.175 866.575 279.406 861.969 279.406Z" fill="#FFFFFF"/><path d="M857.781 384.094 715.406 384.094 715.406 350.594 702.844 350.594 702.844 388.281C702.844 392.888 706.612 396.656 711.219 396.656L769.844 396.656 769.844 409.219 748.906 409.219 748.906 421.781 824.281 421.781 824.281 409.219 803.344 409.219 803.344 396.656 861.969 396.656C866.575 396.656 870.344 392.888 870.344 388.281L870.344 325.469 857.781 325.469 857.781 384.094Z" fill="#FFFFFF"/><path d="M822.188 279.406 711.219 279.406C706.612 279.406 702.844 283.175 702.844 287.781L702.844 291.969 822.188 291.969 822.188 279.406Z" fill="#FFFFFF"/></g></svg>