<svg width="644" height="113" xmlns="http://www.w3.org/2000/svg" xmlns:xlink="http://www.w3.org/1999/xlink" xml:space="preserve" overflow="hidden"><defs><clipPath id="clip0"><rect x="320" y="294" width="644" height="113"/></clipPath></defs><g clip-path="url(#clip0)" transform="translate(-320 -294)"><path d="M392.51 6.72097C387.52 6.72097 382.531 6.72097 377.542 6.72097L377.542 27.4735 359.882 27.4735 359.882 6.72097C354.892 6.72097 349.827 6.72097 344.935 6.72097L344.935 63.9304C349.827 63.9304 354.892 63.9304 359.882 63.9304L359.882 40.9646 377.542 40.9646 377.542 63.9304C382.531 63.9304 387.52 63.9304 392.51 63.9304ZM442.84 6.72097C429.449 6.72097 420.371 6.72097 407.14 6.72097 407.14 25.6773 407.14 44.8143 407.14 63.9304 420.371 63.9304 430.186 63.9304 443.576 63.9304 443.576 59.6013 443.576 55.1923 443.576 50.9396 434.998 50.9396 430.106 50.9396 421.688 50.9396 421.688 47.5104 421.688 44.2375 421.688 40.8847L441.123 40.8847C441.123 36.5522 441.123 32.223 441.123 27.8939L421.688 27.8939 421.688 19.7917C430.106 19.7917 434.359 19.7917 442.84 19.7917 442.84 15.3826 442.84 10.9702 442.84 6.72097ZM470.809 6.72097C465.819 6.72097 460.99 6.72097 456.081 6.72097L456.081 63.9304C467.696 63.9304 479.787 63.9304 491.561 63.9304 491.561 59.0246 491.561 55.6718 491.561 50.7833L470.809 50.7833C470.809 26.4173 470.809 36.3124 470.809 6.72097ZM516.25 6.72097C511.265 6.72097 506.435 6.72097 501.526 6.72097L501.526 63.9304C513.137 63.9304 525.232 63.9304 537.006 63.9304 537.006 59.0246 537.006 55.6718 537.006 50.7833L516.25 50.7833C516.25 26.4173 516.25 36.3124 516.25 6.72097ZM602.224 35.3952C602.224-4.1539 543.538-4.1539 543.538 35.3952 543.538 75.0485 602.224 75.0485 602.224 35.3952ZM558.582 35.3952C558.582 14.8024 587.281 14.8024 587.281 35.3952 587.281 56.1686 558.582 56.1686 558.582 35.3952ZM644.153 19.7917 644.153 63.9304C648.983 63.9304 653.812 63.9304 658.621 63.9304L658.621 19.7917 672.609 19.7917C672.609 15.3826 672.609 11.0501 672.609 6.72097L630.106 6.72097C630.106 11.0501 630.106 15.3826 630.106 19.7917ZM729.342 6.72097C724.353 6.72097 719.364 6.72097 714.374 6.72097L714.374 27.4735 696.714 27.4735 696.714 6.72097C691.725 6.72097 686.656 6.72097 681.767 6.72097L681.767 63.9304C686.656 63.9304 691.725 63.9304 696.714 63.9304L696.714 40.9646 714.374 40.9646 714.374 63.9304C719.364 63.9304 724.353 63.9304 729.342 63.9304ZM779.669 6.72097C766.278 6.72097 757.2 6.72097 743.969 6.72097 743.969 25.6773 743.969 44.8143 743.969 63.9304 757.2 63.9304 767.019 63.9304 780.409 63.9304 780.409 59.6013 780.409 55.1923 780.409 50.9396 771.827 50.9396 766.939 50.9396 758.517 50.9396 758.517 47.5104 758.517 44.2375 758.517 40.8847L777.952 40.8847C777.952 36.5522 777.952 32.223 777.952 27.8939L758.517 27.8939 758.517 19.7917C766.939 19.7917 771.188 19.7917 779.669 19.7917 779.669 15.3826 779.669 10.9702 779.669 6.72097ZM830.107 43.6573C844.574 33.8595 840.485 6.80088 818.016 6.72097 809.674 6.72097 801.172 6.72097 792.91 6.72097 792.91 25.8371 792.91 44.8942 792.91 63.9304 797.659 63.9304 802.648 63.9304 807.558 63.9304L807.558 47.09 815.16 47.09 824.958 63.9304 841.301 63.9304 841.301 61.818ZM818.016 34.0992 807.558 34.0992C807.558 29.5304 807.558 24.4612 807.558 19.7917 810.99 19.7917 814.583 19.7117 818.016 19.7917 826.354 19.8716 825.937 34.0992 818.016 34.0992ZM885.843 6.72097C872.453 6.72097 863.374 6.72097 850.143 6.72097 850.143 25.6773 850.143 44.8143 850.143 63.9304 863.374 63.9304 873.193 63.9304 886.583 63.9304 886.583 59.6013 886.583 55.1923 886.583 50.9396 878.001 50.9396 873.113 50.9396 864.691 50.9396 864.691 47.5104 864.691 44.2375 864.691 40.8847L884.127 40.8847C884.127 36.5522 884.127 32.223 884.127 27.8939L864.691 27.8939 864.691 19.7917C873.113 19.7917 877.362 19.7917 885.843 19.7917 885.843 15.3826 885.843 10.9702 885.843 6.72097ZM929.005 63.5343C933.494 63.5343 937.028 60.5811 937.028 56.0887 937.028 51.499 933.494 48.5666 929.005 48.5666 924.516 48.5666 921.004 51.499 921.004 56.0887 921.004 60.5811 924.516 63.5343 929.005 63.5343ZM921.9 46.4299 936.128 46.4299 937.028 5.48408 920.663 5.48408Z" stroke="#FFFFFF" stroke-width="3.06524" fill="none" transform="matrix(1 0 0 1.00247 -0.520668 315.547)"/></g></svg>