<svg width="975" height="94" xmlns="http://www.w3.org/2000/svg" xmlns:xlink="http://www.w3.org/1999/xlink" xml:space="preserve" overflow="hidden"><defs><clipPath id="clip0"><rect x="154" y="306" width="975" height="94"/></clipPath></defs><g clip-path="url(#clip0)" transform="translate(-154 -306)"><path d="M51.9859 5.78169C41.7907 5.78169 34.8804 5.78169 24.8068 5.78169 24.8068 20.2134 24.8068 34.7839 24.8068 49.3371 34.8804 49.3371 42.3532 49.3371 52.545 49.3371 52.545 46.0417 52.545 42.6838 52.545 39.4475 46.0133 39.4475 42.2907 39.4475 35.8805 39.4475 35.8805 36.8362 35.8805 34.3429 35.8805 31.7906L50.6768 31.7906C50.6768 28.4953 50.6768 25.1964 50.6768 21.901L35.8805 21.901 35.8805 15.7339C42.2907 15.7339 45.5271 15.7339 51.9859 15.7339 51.9859 12.376 51.9859 9.01805 51.9859 5.78169ZM95.6074 49.3962 99.5868 49.3962 99.5868 5.78169C95.7914 5.78169 92.0064 5.78169 88.211 5.78169L88.211 27.1271 66.1815 5.60113 62.1395 5.60113 62.1395 49.3371C65.9245 49.3371 69.7824 49.3371 73.6404 49.3371L73.6404 27.9327ZM155.466 49.3371 166.359 49.3371 166.359 47.7259 146.702 5.21915 141.899 5.21915 122.304 47.7259 122.304 49.3371 133.194 49.3371 135.746 43.868 152.914 43.868ZM149.254 34.2839 139.409 34.2839 144.271 22.8281ZM178.485 15.7339 178.485 49.3371C182.163 49.3371 185.84 49.3371 189.5 49.3371L189.5 15.7339 200.15 15.7339C200.15 12.376 200.15 9.08056 200.15 5.78169L167.79 5.78169C167.79 9.08056 167.79 12.376 167.79 15.7339ZM213.457 15.7339 213.457 49.3371C217.131 49.3371 220.808 49.3371 224.468 49.3371L224.468 15.7339 235.118 15.7339C235.118 12.376 235.118 9.08056 235.118 5.78169L202.761 5.78169C202.761 9.08056 202.761 12.376 202.761 15.7339ZM269.208 5.78169C259.012 5.78169 252.102 5.78169 242.028 5.78169 242.028 20.2134 242.028 34.7839 242.028 49.3371 252.102 49.3371 259.575 49.3371 269.77 49.3371 269.77 46.0417 269.77 42.6838 269.77 39.4475 263.238 39.4475 259.516 39.4475 253.106 39.4475 253.106 36.8362 253.106 34.3429 253.106 31.7906L267.902 31.7906C267.902 28.4953 267.902 25.1964 267.902 21.901L253.106 21.901 253.106 15.7339C259.516 15.7339 262.752 15.7339 269.208 15.7339 269.208 12.376 269.208 9.01805 269.208 5.78169ZM312.832 49.3962 316.812 49.3962 316.812 5.78169C313.013 5.78169 309.231 5.78169 305.433 5.78169L305.433 27.1271 283.403 5.60113 279.365 5.60113 279.365 49.3371C283.146 49.3371 287.004 49.3371 290.862 49.3371L290.862 27.9327ZM334.292 15.7339 334.292 49.3371C337.97 49.3371 341.647 49.3371 345.307 49.3371L345.307 15.7339 355.957 15.7339C355.957 12.376 355.957 9.08056 355.957 5.78169L323.597 5.78169C323.597 9.08056 323.597 12.376 323.597 15.7339ZM390.047 5.78169C379.852 5.78169 372.941 5.78169 362.868 5.78169 362.868 20.2134 362.868 34.7839 362.868 49.3371 372.941 49.3371 380.414 49.3371 390.609 49.3371 390.609 46.0417 390.609 42.6838 390.609 39.4475 384.074 39.4475 380.355 39.4475 373.941 39.4475 373.941 36.8362 373.941 34.3429 373.941 31.7906L388.738 31.7906C388.738 28.4953 388.738 25.1964 388.738 21.901L373.941 21.901 373.941 15.7339C380.355 15.7339 383.588 15.7339 390.047 15.7339 390.047 12.376 390.047 9.01805 390.047 5.78169ZM433.734 5.78169 417.313 5.78169 417.313 49.3371 433.734 49.3371C462.115 49.2156 462.115 5.90323 433.734 5.78169ZM428.449 15.9144 433.734 15.9144C447.607 15.9144 447.607 39.1905 433.734 39.1905L428.449 39.1905ZM480.345 39.9475C477.109 39.9475 473.678 38.2009 473.678 34.6485L473.678 5.78169C470.199 5.78169 466.521 5.78169 463.042 5.78169L463.042 34.843C463.042 44.4166 471.445 49.9587 480.345 49.9587 489.294 49.9587 497.572 44.4166 497.572 34.843L497.572 5.78169C494.093 5.78169 490.478 5.78169 486.94 5.78169L486.94 34.6485C486.94 38.2009 483.582 39.9475 480.345 39.9475ZM541.944 5.78169 525.519 5.78169 525.519 49.3371 541.944 49.3371C570.321 49.2156 570.321 5.90323 541.944 5.78169ZM536.655 15.9144 541.944 15.9144C555.813 15.9144 555.813 39.1905 541.944 39.1905L536.655 39.1905ZM598.868 5.78169C588.673 5.78169 581.763 5.78169 571.689 5.78169 571.689 20.2134 571.689 34.7839 571.689 49.3371 581.763 49.3371 589.236 49.3371 599.431 49.3371 599.431 46.0417 599.431 42.6838 599.431 39.4475 592.899 39.4475 589.177 39.4475 582.766 39.4475 582.766 36.8362 582.766 34.3429 582.766 31.7906L597.563 31.7906C597.563 28.4953 597.563 25.1964 597.563 21.901L582.766 21.901 582.766 15.7339C589.177 15.7339 592.413 15.7339 598.868 15.7339 598.868 12.376 598.868 9.01805 598.868 5.78169ZM588.052 2.90995 594.462-4.36492 594.462-5.29208 584.999-8.46593 580.273 1.92376 580.273 2.90995ZM606.411 27.5507C606.473 42.3644 617.668 49.8372 628.742 49.7781 638.01 49.7781 647.778 44.9167 649.404 32.5963 645.605 32.5963 642.188 32.5963 638.451 32.5963 637.267 37.2598 633.468 39.6281 628.742 39.6281 622.151 39.569 617.911 33.9644 617.911 27.5507 617.911 20.3349 622.211 15.4283 628.742 15.4283 633.406 15.4283 636.705 17.418 638.267 21.842 642.066 21.842 645.424 21.842 649.223 21.842 647.535 10.2022 637.767 5.28166 628.742 5.28166 617.668 5.28166 606.473 12.7545 606.411 27.5507ZM699.921 27.6132C699.921-2.49672 655.244-2.49672 655.244 27.6132 655.244 57.7996 699.921 57.7996 699.921 27.6132ZM666.697 27.6132C666.697 11.9349 688.542 11.9349 688.542 27.6132 688.542 43.427 666.697 43.427 666.697 27.6132ZM719.468 5.78169C715.673 5.78169 711.995 5.78169 708.259 5.78169L708.259 49.3371C717.1 49.3371 726.305 49.3371 735.268 49.3371 735.268 45.6007 735.268 43.0485 735.268 39.3259L719.468 39.3259C719.468 20.7759 719.468 28.3112 719.468 5.78169ZM754.064 5.78169C750.269 5.78169 746.592 5.78169 742.855 5.78169L742.855 49.3371C751.696 49.3371 760.902 49.3371 769.864 49.3371 769.864 45.6007 769.864 43.0485 769.864 39.3259L754.064 39.3259C754.064 20.7759 754.064 28.3112 754.064 5.78169ZM805.204 49.3371 816.097 49.3371 816.097 47.7259 796.439 5.21915 791.64 5.21915 772.041 47.7259 772.041 49.3371 782.935 49.3371 785.487 43.868 802.651 43.868ZM798.991 34.2839 789.147 34.2839 794.008 22.8281ZM819.139 27.5507C819.215 42.4234 830.414 49.8372 841.488 49.8372 849.509 49.8372 857.788 46.3439 860.902 37.2598 862.392 33.0373 862.392 28.8599 862.149 24.5158L841.547 24.5158 841.547 34.1624 850.815 34.1624C848.825 38.3224 845.967 39.5065 841.488 39.5065 834.894 39.5065 830.657 34.7839 830.657 27.5507 830.657 20.8974 834.453 15.4283 841.488 15.4283 845.908 15.4283 848.763 16.918 850.572 20.6544L861.524 20.6544C859.413 9.82367 850.252 5.28166 841.488 5.21915 830.414 5.21915 819.215 12.6815 819.139 27.5507ZM898.162 5.78169C887.971 5.78169 881.057 5.78169 870.987 5.78169 870.987 20.2134 870.987 34.7839 870.987 49.3371 881.057 49.3371 888.533 49.3371 898.725 49.3371 898.725 46.0417 898.725 42.6838 898.725 39.4475 892.193 39.4475 888.471 39.4475 882.06 39.4475 882.06 36.8362 882.06 34.3429 882.06 31.7906L896.857 31.7906C896.857 28.4953 896.857 25.1964 896.857 21.901L882.06 21.901 882.06 15.7339C888.471 15.7339 891.707 15.7339 898.162 15.7339 898.162 12.376 898.162 9.01805 898.162 5.78169ZM911.479 49.7156C914.851 49.7156 917.587 47.4689 917.587 44.052 917.587 40.5552 914.851 38.2634 911.479 38.2634 908 38.2634 905.267 40.5552 905.267 44.052 905.267 47.4689 908 49.7156 911.479 49.7156ZM929.151 49.7156C932.523 49.7156 935.259 47.4689 935.259 44.052 935.259 40.5552 932.523 38.2634 929.151 38.2634 925.671 38.2634 922.938 40.5552 922.938 44.052 922.938 47.4689 925.671 49.7156 929.151 49.7156ZM946.822 49.7156C950.194 49.7156 952.93 47.4689 952.93 44.052 952.93 40.5552 950.194 38.2634 946.822 38.2634 943.343 38.2634 940.61 40.5552 940.61 44.052 940.61 47.4689 943.343 49.7156 946.822 49.7156Z" stroke="#FFFFFF" stroke-width="2.33351" fill="none" transform="matrix(1 0 0 1.00135 152.911 325.891)"/></g></svg>