<svg width="104" height="94" xmlns="http://www.w3.org/2000/svg" xmlns:xlink="http://www.w3.org/1999/xlink" xml:space="preserve" overflow="hidden"><defs><clipPath id="clip0"><rect x="557" y="260" width="104" height="94"/></clipPath></defs><g clip-path="url(#clip0)" transform="translate(-557 -260)"><path d="M51.7146 5.75152C41.5726 5.75152 34.6984 5.75152 24.6773 5.75152 24.6773 20.1079 24.6773 34.6024 24.6773 49.0796 34.6984 49.0796 42.1322 49.0796 52.2708 49.0796 52.2708 45.8014 52.2708 42.4611 52.2708 39.2416 45.7731 39.2416 42.07 39.2416 35.6933 39.2416 35.6933 36.6439 35.6933 34.1637 35.6933 31.6247L50.4123 31.6247C50.4123 28.3465 50.4123 25.0649 50.4123 21.7867L35.6933 21.7867 35.6933 15.6517C42.07 15.6517 45.2895 15.6517 51.7146 15.6517 51.7146 12.3114 51.7146 8.97099 51.7146 5.75152ZM95.1083 49.1384 99.067 49.1384 99.067 5.75152C95.2914 5.75152 91.5262 5.75152 87.7505 5.75152L87.7505 26.9855 65.8361 5.57189 61.8152 5.57189 61.8152 49.0796C65.5804 49.0796 69.4182 49.0796 73.256 49.0796L73.256 27.7869ZM154.655 49.0796 165.491 49.0796 165.491 47.4768 145.936 5.19191 141.159 5.19191 121.666 47.4768 121.666 49.0796 132.498 49.0796 135.037 43.639 152.116 43.639ZM148.475 34.105 138.682 34.105 143.518 22.709ZM177.554 15.6517 177.554 49.0796C181.212 49.0796 184.87 49.0796 188.511 49.0796L188.511 15.6517 199.105 15.6517C199.105 12.3114 199.105 9.03316 199.105 5.75152L166.914 5.75152C166.914 9.03316 166.914 12.3114 166.914 15.6517ZM212.343 15.6517 212.343 49.0796C215.997 49.0796 219.656 49.0796 223.296 49.0796L223.296 15.6517 233.891 15.6517C233.891 12.3114 233.891 9.03316 233.891 5.75152L201.703 5.75152C201.703 9.03316 201.703 12.3114 201.703 15.6517ZM267.802 5.75152C257.66 5.75152 250.786 5.75152 240.765 5.75152 240.765 20.1079 240.765 34.6024 240.765 49.0796 250.786 49.0796 258.22 49.0796 268.362 49.0796 268.362 45.8014 268.362 42.4611 268.362 39.2416 261.864 39.2416 258.161 39.2416 251.785 39.2416 251.785 36.6439 251.785 34.1637 251.785 31.6247L266.504 31.6247C266.504 28.3465 266.504 25.0649 266.504 21.7867L251.785 21.7867 251.785 15.6517C258.161 15.6517 261.381 15.6517 267.802 15.6517 267.802 12.3114 267.802 8.97099 267.802 5.75152ZM311.2 49.1384 315.158 49.1384 315.158 5.75152C311.379 5.75152 307.617 5.75152 303.838 5.75152L303.838 26.9855 281.924 5.57189 277.906 5.57189 277.906 49.0796C281.668 49.0796 285.506 49.0796 289.344 49.0796L289.344 27.7869ZM332.548 15.6517 332.548 49.0796C336.206 49.0796 339.864 49.0796 343.505 49.0796L343.505 15.6517 354.099 15.6517C354.099 12.3114 354.099 9.03316 354.099 5.75152L321.908 5.75152C321.908 9.03316 321.908 12.3114 321.908 15.6517ZM388.011 5.75152C377.869 5.75152 370.995 5.75152 360.974 5.75152 360.974 20.1079 360.974 34.6024 360.974 49.0796 370.995 49.0796 378.429 49.0796 388.571 49.0796 388.571 45.8014 388.571 42.4611 388.571 39.2416 382.069 39.2416 378.37 39.2416 371.99 39.2416 371.99 36.6439 371.99 34.1637 371.99 31.6247L386.709 31.6247C386.709 28.3465 386.709 25.0649 386.709 21.7867L371.99 21.7867 371.99 15.6517C378.37 15.6517 381.586 15.6517 388.011 15.6517 388.011 12.3114 388.011 8.97099 388.011 5.75152ZM431.47 5.75152 415.135 5.75152 415.135 49.0796 431.47 49.0796C459.703 48.9587 459.703 5.87242 431.47 5.75152ZM426.213 15.8314 431.47 15.8314C445.271 15.8314 445.271 38.986 431.47 38.986L426.213 38.986ZM477.838 39.739C474.619 39.739 471.206 38.0015 471.206 34.4677L471.206 5.75152C467.745 5.75152 464.086 5.75152 460.625 5.75152L460.625 34.6611C460.625 44.1848 468.985 49.698 477.838 49.698 486.74 49.698 494.975 44.1848 494.975 34.6611L494.975 5.75152C491.514 5.75152 487.918 5.75152 484.398 5.75152L484.398 34.4677C484.398 38.0015 481.058 39.739 477.838 39.739ZM539.115 5.75152 522.776 5.75152 522.776 49.0796 539.115 49.0796C567.344 48.9587 567.344 5.87242 539.115 5.75152ZM533.854 15.8314 539.115 15.8314C552.912 15.8314 552.912 38.986 539.115 38.986L533.854 38.986ZM595.743 5.75152C585.601 5.75152 578.727 5.75152 568.705 5.75152 568.705 20.1079 568.705 34.6024 568.705 49.0796 578.727 49.0796 586.16 49.0796 596.302 49.0796 596.302 45.8014 596.302 42.4611 596.302 39.2416 589.805 39.2416 586.102 39.2416 579.725 39.2416 579.725 36.6439 579.725 34.1637 579.725 31.6247L594.444 31.6247C594.444 28.3465 594.444 25.0649 594.444 21.7867L579.725 21.7867 579.725 15.6517C586.102 15.6517 589.321 15.6517 595.743 15.6517 595.743 12.3114 595.743 8.97099 595.743 5.75152ZM584.982 2.89476 591.359-4.34214 591.359-5.26445 581.946-8.42175 577.245 1.91372 577.245 2.89476ZM603.246 27.4069C603.308 42.1433 614.445 49.5771 625.461 49.5183 634.68 49.5183 644.397 44.6822 646.014 32.4261 642.235 32.4261 638.836 32.4261 635.119 32.4261 633.941 37.0653 630.162 39.4212 625.461 39.4212 618.904 39.3625 614.686 33.7872 614.686 27.4069 614.686 20.2288 618.963 15.3477 625.461 15.3477 630.1 15.3477 633.381 17.3271 634.936 21.728 638.715 21.728 642.055 21.728 645.834 21.728 644.156 10.1489 634.438 5.25409 625.461 5.25409 614.445 5.25409 603.308 12.6879 603.246 27.4069ZM696.268 27.4691C696.268-2.48369 651.824-2.48369 651.824 27.4691 651.824 57.4979 696.268 57.4979 696.268 27.4691ZM663.217 27.4691C663.217 11.8727 684.948 11.8727 684.948 27.4691 684.948 43.2003 663.217 43.2003 663.217 27.4691ZM715.713 5.75152C711.937 5.75152 708.279 5.75152 704.562 5.75152L704.562 49.0796C713.357 49.0796 722.515 49.0796 731.43 49.0796 731.43 45.3627 731.43 42.8238 731.43 39.1207L715.713 39.1207C715.713 20.6675 715.713 28.1634 715.713 5.75152ZM750.129 5.75152C746.353 5.75152 742.695 5.75152 738.978 5.75152L738.978 49.0796C747.773 49.0796 756.93 49.0796 765.846 49.0796 765.846 45.3627 765.846 42.8238 765.846 39.1207L750.129 39.1207C750.129 20.6675 750.129 28.1634 750.129 5.75152ZM801.001 49.0796 811.837 49.0796 811.837 47.4768 792.282 5.19191 787.508 5.19191 768.012 47.4768 768.012 49.0796 778.848 49.0796 781.387 43.639 798.462 43.639ZM794.821 34.105 785.028 34.105 789.864 22.709ZM814.863 27.4069C814.939 42.202 826.08 49.5771 837.096 49.5771 845.075 49.5771 853.311 46.102 856.409 37.0653 857.891 32.8648 857.891 28.7092 857.649 24.3878L837.154 24.3878 837.154 33.9841 846.374 33.9841C844.395 38.1224 841.552 39.3003 837.096 39.3003 830.536 39.3003 826.322 34.6024 826.322 27.4069 826.322 20.7884 830.097 15.3477 837.096 15.3477 841.493 15.3477 844.333 16.8297 846.132 20.5466L857.028 20.5466C854.927 9.7724 845.815 5.25409 837.096 5.19191 826.08 5.19191 814.939 12.6153 814.863 27.4069ZM893.474 5.75152C883.336 5.75152 876.458 5.75152 866.441 5.75152 866.441 20.1079 866.441 34.6024 866.441 49.0796 876.458 49.0796 883.896 49.0796 894.034 49.0796 894.034 45.8014 894.034 42.4611 894.034 39.2416 887.536 39.2416 883.833 39.2416 877.457 39.2416 877.457 36.6439 877.457 34.1637 877.457 31.6247L892.176 31.6247C892.176 28.3465 892.176 25.0649 892.176 21.7867L877.457 21.7867 877.457 15.6517C883.833 15.6517 887.053 15.6517 893.474 15.6517 893.474 12.3114 893.474 8.97099 893.474 5.75152ZM906.722 49.4562C910.076 49.4562 912.798 47.2212 912.798 43.8221 912.798 40.3435 910.076 38.0637 906.722 38.0637 903.261 38.0637 900.542 40.3435 900.542 43.8221 900.542 47.2212 903.261 49.4562 906.722 49.4562ZM924.301 49.4562C927.655 49.4562 930.378 47.2212 930.378 43.8221 930.378 40.3435 927.655 38.0637 924.301 38.0637 920.84 38.0637 918.121 40.3435 918.121 43.8221 918.121 47.2212 920.84 49.4562 924.301 49.4562ZM941.881 49.4562C945.235 49.4562 947.957 47.2212 947.957 43.8221 947.957 40.3435 945.235 38.0637 941.881 38.0637 938.419 38.0637 935.701 40.3435 935.701 43.8221 935.701 47.2212 938.419 49.4562 941.881 49.4562Z" stroke="#FFFFFF" stroke-width="2.32133" fill="none" transform="matrix(1 0 0 1.0066 153.733 279.891)"/></g></svg>