<svg width="688" height="103" xmlns="http://www.w3.org/2000/svg" xmlns:xlink="http://www.w3.org/1999/xlink" xml:space="preserve" overflow="hidden"><defs><clipPath id="clip0"><rect x="296" y="300" width="688" height="103"/></clipPath></defs><g clip-path="url(#clip0)" transform="translate(-296 -300)"><path d="M317.013 35.2958C317.093 54.7417 331.792 64.5549 346.331 64.475 358.499 64.475 371.323 58.0926 373.458 41.9178 368.472 41.9178 363.982 41.9178 359.079 41.9178 357.523 48.0398 352.537 51.1511 346.331 51.1511 337.678 51.0713 332.112 43.7131 332.112 35.2958 332.112 25.8229 337.758 19.3814 346.331 19.3814 352.457 19.3814 356.784 21.9927 358.839 27.7987 363.822 27.7987 368.232 27.7987 373.219 27.7987 371.003 12.5198 358.179 6.05749 346.331 6.05749 331.792 6.05749 317.093 15.8707 317.013 35.2958ZM432.279 6.71726C427.296 6.71726 422.309 6.71726 417.323 6.71726L417.323 27.4584 399.672 27.4584 399.672 6.71726C394.686 6.71726 389.619 6.71726 384.734 6.71726L384.734 63.8951C389.619 63.8951 394.686 63.8951 399.672 63.8951L399.672 40.942 417.323 40.942 417.323 63.8951C422.309 63.8951 427.296 63.8951 432.279 63.8951ZM483.241 63.8951 497.541 63.8951 497.541 61.7839 471.733 5.97762 465.431 5.97762 439.703 61.7839 439.703 63.8951 454.003 63.8951 457.354 56.7175 479.89 56.7175ZM475.164 44.2131 462.08 44.2131 468.542 29.1738ZM542.141 43.6332C556.601 33.8408 552.513 6.79713 530.053 6.71726 521.719 6.71726 513.222 6.71726 504.965 6.71726 504.965 25.8229 504.965 44.8694 504.965 63.8951 509.712 63.8951 514.698 63.8951 519.605 63.8951L519.605 47.064 527.203 47.064 536.995 63.8951 553.329 63.8951 553.329 61.7839ZM530.053 34.0804 519.605 34.0804C519.605 29.5141 519.605 24.4478 519.605 19.7807 523.036 19.7807 526.626 19.7009 530.053 19.7807 538.391 19.8606 537.974 34.0804 530.053 34.0804ZM558.635 35.2958C558.736 54.8215 573.435 64.5549 587.974 64.5549 598.503 64.5549 609.375 59.9678 613.462 48.0398 615.417 42.4977 615.417 37.0112 615.098 31.3094L588.054 31.3094 588.054 43.9735 600.218 43.9735C597.607 49.4357 593.857 50.9914 587.974 50.9914 579.318 50.9914 573.755 44.7895 573.755 35.2958 573.755 26.5625 578.741 19.3814 587.974 19.3814 593.777 19.3814 597.527 21.3364 599.902 26.243L614.282 26.243C611.507 12.0232 599.482 6.05749 587.974 5.97762 573.435 5.97762 558.736 15.77 558.635 35.2958ZM662.383 6.71726C649 6.71726 639.923 6.71726 626.703 6.71726 626.703 25.6631 626.703 44.7895 626.703 63.8951 639.923 63.8951 649.736 63.8951 663.119 63.8951 663.119 59.5684 663.119 55.1618 663.119 50.9115 654.542 50.9115 649.656 50.9115 641.242 50.9115 641.242 47.4842 641.242 44.2131 641.242 40.8622L660.667 40.8622C660.667 36.532 660.667 32.2053 660.667 27.8786L641.242 27.8786 641.242 19.7807C649.656 19.7807 653.906 19.7807 662.383 19.7807 662.383 15.3742 662.383 10.9641 662.383 6.71726ZM703.4 31.3892 681.02 6.55753 675.616 6.55753 675.616 63.8951C680.603 63.8951 685.589 63.8951 690.572 63.8951L690.572 38.4071 702.66 51.1511 704.296 51.1511 716.463 38.4071 716.463 63.8951C721.446 63.8951 726.433 63.8951 731.419 63.8951L731.419 6.55753 726.193 6.55753ZM781.649 6.71726C768.266 6.71726 759.192 6.71726 745.969 6.71726 745.969 25.6631 745.969 44.7895 745.969 63.8951 759.192 63.8951 769.005 63.8951 782.388 63.8951 782.388 59.5684 782.388 55.1618 782.388 50.9115 773.811 50.9115 768.925 50.9115 760.508 50.9115 760.508 47.4842 760.508 44.2131 760.508 40.8622L779.933 40.8622C779.933 36.532 779.933 32.2053 779.933 27.8786L760.508 27.8786 760.508 19.7807C768.925 19.7807 773.172 19.7807 781.649 19.7807 781.649 15.3742 781.649 10.9641 781.649 6.71726ZM838.92 63.975 844.146 63.975 844.146 6.71726C839.16 6.71726 834.194 6.71726 829.208 6.71726L829.208 34.7367 800.289 6.47766 794.983 6.47766 794.983 63.8951C799.949 63.8951 805.015 63.8951 810.081 63.8951L810.081 35.7958ZM867.099 19.7807 867.099 63.8951C871.923 63.8951 876.749 63.8951 881.559 63.8951L881.559 19.7807 895.539 19.7807C895.539 15.3742 895.539 11.044 895.539 6.71726L853.057 6.71726C853.057 11.044 853.057 15.3742 853.057 19.7807ZM908.759 64.3952C913.186 64.3952 916.777 61.4436 916.777 56.9571 916.777 52.37 913.186 49.3559 908.759 49.3559 904.192 49.3559 900.602 52.37 900.602 56.9571 900.602 61.4436 904.192 64.3952 908.759 64.3952ZM931.958 64.3952C936.386 64.3952 939.976 61.4436 939.976 56.9571 939.976 52.37 936.386 49.3559 931.958 49.3559 927.392 49.3559 923.802 52.37 923.802 56.9571 923.802 61.4436 927.392 64.3952 931.958 64.3952ZM955.158 64.3952C959.589 64.3952 963.176 61.4436 963.176 56.9571 963.176 52.37 959.589 49.3559 955.158 49.3559 950.592 49.3559 947.001 52.37 947.001 56.9571 947.001 61.4436 950.592 64.3952 955.158 64.3952Z" stroke="#FFFFFF" stroke-width="3.06355" fill="none" transform="matrix(1 0 0 1.00228 0.451611 315.216)"/></g></svg>