<svg width="113" height="93" xmlns="http://www.w3.org/2000/svg" xmlns:xlink="http://www.w3.org/1999/xlink" xml:space="preserve" overflow="hidden"><defs><clipPath id="clip0"><rect x="153" y="105" width="113" height="93"/></clipPath></defs><g clip-path="url(#clip0)" transform="translate(-153 -105)"><path d="M51.5021 5.72789C41.4018 5.72789 34.5558 5.72789 24.5759 5.72789 24.5759 20.0252 24.5759 34.4602 24.5759 48.878 34.5558 48.878 41.9591 48.878 52.056 48.878 52.056 45.6133 52.056 42.2866 52.056 39.0804 45.585 39.0804 41.8972 39.0804 35.5466 39.0804 35.5466 36.4934 35.5466 34.0233 35.5466 31.4948L50.2052 31.4948C50.2052 28.2301 50.2052 24.9619 50.2052 21.6972L35.5466 21.6972 35.5466 15.5874C41.8972 15.5874 45.1034 15.5874 51.5021 15.5874 51.5021 12.2608 51.5021 8.93413 51.5021 5.72789ZM94.7176 48.9365 98.66 48.9365 98.66 5.72789C94.8999 5.72789 91.1501 5.72789 87.39 5.72789L87.39 26.8746 65.5656 5.549 61.5612 5.549 61.5612 48.878C65.311 48.878 69.133 48.878 72.955 48.878L72.955 27.6728ZM154.019 48.878 164.811 48.878 164.811 47.2817 145.336 5.17058 140.579 5.17058 121.166 47.2817 121.166 48.878 131.954 48.878 134.483 43.4597 151.491 43.4597ZM147.865 33.9648 138.112 33.9648 142.928 22.6157ZM176.824 15.5874 176.824 48.878C180.467 48.878 184.11 48.878 187.736 48.878L187.736 15.5874 198.287 15.5874C198.287 12.2608 198.287 8.99605 198.287 5.72789L166.228 5.72789C166.228 8.99605 166.228 12.2608 166.228 15.5874ZM211.47 15.5874 211.47 48.878C215.11 48.878 218.753 48.878 222.379 48.878L222.379 15.5874 232.93 15.5874C232.93 12.2608 232.93 8.99605 232.93 5.72789L200.874 5.72789C200.874 8.99605 200.874 12.2608 200.874 15.5874ZM266.702 5.72789C256.602 5.72789 249.756 5.72789 239.776 5.72789 239.776 20.0252 239.776 34.4602 239.776 48.878 249.756 48.878 257.159 48.878 267.259 48.878 267.259 45.6133 267.259 42.2866 267.259 39.0804 260.788 39.0804 257.101 39.0804 250.75 39.0804 250.75 36.4934 250.75 34.0233 250.75 31.4948L265.409 31.4948C265.409 28.2301 265.409 24.9619 265.409 21.6972L250.75 21.6972 250.75 15.5874C257.101 15.5874 260.307 15.5874 266.702 15.5874 266.702 12.2608 266.702 8.93413 266.702 5.72789ZM309.921 48.9365 313.863 48.9365 313.863 5.72789C310.1 5.72789 306.354 5.72789 302.59 5.72789L302.59 26.8746 280.766 5.549 276.765 5.549 276.765 48.878C280.511 48.878 284.333 48.878 288.155 48.878L288.155 27.6728ZM331.181 15.5874 331.181 48.878C334.824 48.878 338.468 48.878 342.094 48.878L342.094 15.5874 352.645 15.5874C352.645 12.2608 352.645 8.99605 352.645 5.72789L320.586 5.72789C320.586 8.99605 320.586 12.2608 320.586 15.5874ZM386.417 5.72789C376.316 5.72789 369.47 5.72789 359.491 5.72789 359.491 20.0252 359.491 34.4602 359.491 48.878 369.47 48.878 376.874 48.878 386.974 48.878 386.974 45.6133 386.974 42.2866 386.974 39.0804 380.5 39.0804 376.815 39.0804 370.461 39.0804 370.461 36.4934 370.461 34.0233 370.461 31.4948L385.12 31.4948C385.12 28.2301 385.12 24.9619 385.12 21.6972L370.461 21.6972 370.461 15.5874C376.815 15.5874 380.018 15.5874 386.417 15.5874 386.417 12.2608 386.417 8.93413 386.417 5.72789ZM429.698 5.72789 413.429 5.72789 413.429 48.878 429.698 48.878C457.814 48.7576 457.814 5.84829 429.698 5.72789ZM424.462 15.7663 429.698 15.7663C443.441 15.7663 443.441 38.8258 429.698 38.8258L424.462 38.8258ZM475.875 39.5758C472.669 39.5758 469.27 37.8453 469.27 34.326L469.27 5.72789C465.823 5.72789 462.18 5.72789 458.733 5.72789L458.733 34.5187C458.733 44.0033 467.058 49.4938 475.875 49.4938 484.74 49.4938 492.942 44.0033 492.942 34.5187L492.942 5.72789C489.495 5.72789 485.913 5.72789 482.408 5.72789L482.408 34.326C482.408 37.8453 479.081 39.5758 475.875 39.5758ZM536.9 5.72789 520.628 5.72789 520.628 48.878 536.9 48.878C565.013 48.7576 565.013 5.84829 536.9 5.72789ZM531.661 15.7663 536.9 15.7663C550.64 15.7663 550.64 38.8258 536.9 38.8258L531.661 38.8258ZM593.295 5.72789C583.195 5.72789 576.349 5.72789 566.369 5.72789 566.369 20.0252 566.369 34.4602 566.369 48.878 576.349 48.878 583.752 48.878 593.852 48.878 593.852 45.6133 593.852 42.2866 593.852 39.0804 587.381 39.0804 583.693 39.0804 577.343 39.0804 577.343 36.4934 577.343 34.0233 577.343 31.4948L592.002 31.4948C592.002 28.2301 592.002 24.9619 592.002 21.6972L577.343 21.6972 577.343 15.5874C583.693 15.5874 586.9 15.5874 593.295 15.5874 593.295 12.2608 593.295 8.93413 593.295 5.72789ZM582.579 2.88286 588.929-4.3243 588.929-5.24283 579.555-8.38714 574.873 1.90585 574.873 2.88286ZM600.767 27.2943C600.829 41.9701 611.92 49.3734 622.891 49.3149 632.073 49.3149 641.75 44.4986 643.36 32.2929 639.596 32.2929 636.211 32.2929 632.51 32.2929 631.336 36.9131 627.573 39.2593 622.891 39.2593 616.361 39.2008 612.161 33.6483 612.161 27.2943 612.161 20.1457 616.42 15.2847 622.891 15.2847 627.511 15.2847 630.779 17.2559 632.327 21.6387 636.091 21.6387 639.417 21.6387 643.181 21.6387 641.509 10.1072 631.832 5.2325 622.891 5.2325 611.92 5.2325 600.829 12.6358 600.767 27.2943ZM693.407 27.3563C693.407-2.47349 649.146-2.47349 649.146 27.3563 649.146 57.2617 693.407 57.2617 693.407 27.3563ZM660.492 27.3563C660.492 11.8239 682.134 11.8239 682.134 27.3563 682.134 43.0228 660.492 43.0228 660.492 27.3563ZM712.772 5.72789C709.012 5.72789 705.369 5.72789 701.667 5.72789L701.667 48.878C710.426 48.878 719.546 48.878 728.425 48.878 728.425 45.1764 728.425 42.6478 728.425 38.96L712.772 38.96C712.772 20.5826 712.772 28.0477 712.772 5.72789ZM747.047 5.72789C743.286 5.72789 739.643 5.72789 735.942 5.72789L735.942 48.878C744.7 48.878 753.82 48.878 762.699 48.878 762.699 45.1764 762.699 42.6478 762.699 38.96L747.047 38.96C747.047 20.5826 747.047 28.0477 747.047 5.72789ZM797.71 48.878 808.502 48.878 808.502 47.2817 789.027 5.17058 784.273 5.17058 764.856 47.2817 764.856 48.878 775.648 48.878 778.177 43.4597 795.182 43.4597ZM791.556 33.9648 781.803 33.9648 786.619 22.6157ZM811.516 27.2943C811.591 42.0286 822.686 49.3734 833.656 49.3734 841.603 49.3734 849.805 45.9126 852.89 36.9131 854.366 32.7298 854.366 28.5913 854.125 24.2876L833.715 24.2876 833.715 33.8444 842.897 33.8444C840.926 37.9658 838.094 39.1389 833.656 39.1389 827.124 39.1389 822.927 34.4602 822.927 27.2943 822.927 20.703 826.687 15.2847 833.656 15.2847 838.036 15.2847 840.864 16.7605 842.656 20.4621L853.506 20.4621C851.415 9.73225 842.339 5.2325 833.656 5.17058 822.686 5.17058 811.591 12.5635 811.516 27.2943ZM889.804 5.72789C879.707 5.72789 872.857 5.72789 862.881 5.72789 862.881 20.0252 862.881 34.4602 862.881 48.878 872.857 48.878 880.264 48.878 890.361 48.878 890.361 45.6133 890.361 42.2866 890.361 39.0804 883.89 39.0804 880.202 39.0804 873.851 39.0804 873.851 36.4934 873.851 34.0233 873.851 31.4948L888.51 31.4948C888.51 28.2301 888.51 24.9619 888.51 21.6972L873.851 21.6972 873.851 15.5874C880.202 15.5874 883.408 15.5874 889.804 15.5874 889.804 12.2608 889.804 8.93413 889.804 5.72789ZM902.997 49.253C906.337 49.253 909.048 47.0272 909.048 43.642 909.048 40.1778 906.337 37.9073 902.997 37.9073 899.549 37.9073 896.842 40.1778 896.842 43.642 896.842 47.0272 899.549 49.253 902.997 49.253ZM920.504 49.253C923.844 49.253 926.555 47.0272 926.555 43.642 926.555 40.1778 923.844 37.9073 920.504 37.9073 917.057 37.9073 914.349 40.1778 914.349 43.642 914.349 47.0272 917.057 49.253 920.504 49.253ZM938.011 49.253C941.351 49.253 944.062 47.0272 944.062 43.642 944.062 40.1778 941.351 37.9073 938.011 37.9073 934.564 37.9073 931.856 40.1778 931.856 43.642 931.856 47.0272 934.564 49.253 938.011 49.253Z" stroke="#FFFFFF" stroke-width="2.3118" fill="none" transform="matrix(1.00864 0 0 1 151.912 124.68)"/></g></svg>