<svg width="291" height="94" xmlns="http://www.w3.org/2000/svg" xmlns:xlink="http://www.w3.org/1999/xlink" xml:space="preserve" overflow="hidden"><defs><clipPath id="clip0"><rect x="266" y="182" width="291" height="94"/></clipPath></defs><g clip-path="url(#clip0)" transform="translate(-266 -182)"><path d="M51.9462 5.77728C41.7588 5.77728 34.8538 5.77728 24.7878 5.77728 24.7878 20.1979 24.7878 34.7574 24.7878 49.2994 34.8538 49.2994 42.3209 49.2994 52.5049 49.2994 52.5049 46.0066 52.5049 42.6512 52.5049 39.4174 45.9781 39.4174 42.2584 39.4174 35.8531 39.4174 35.8531 36.808 35.8531 34.3167 35.8531 31.7664L50.6381 31.7664C50.6381 28.4735 50.6381 25.1771 50.6381 21.8843L35.8531 21.8843 35.8531 15.7218C42.2584 15.7218 45.4923 15.7218 51.9462 15.7218 51.9462 12.3665 51.9462 9.01117 51.9462 5.77728ZM95.5343 49.3584 99.5108 49.3584 99.5108 5.77728C95.7182 5.77728 91.9361 5.77728 88.1436 5.77728L88.1436 27.1064 66.1309 5.59685 62.092 5.59685 62.092 49.2994C65.8742 49.2994 69.7291 49.2994 73.5841 49.2994L73.5841 27.9114ZM155.347 49.2994 166.232 49.2994 166.232 47.6894 146.59 5.21516 141.791 5.21516 122.21 47.6894 122.21 49.2994 133.092 49.2994 135.642 43.8345 152.797 43.8345ZM149.14 34.2577 139.303 34.2577 144.161 22.8107ZM178.349 15.7218 178.349 49.2994C182.023 49.2994 185.698 49.2994 189.355 49.2994L189.355 15.7218 199.997 15.7218C199.997 12.3665 199.997 9.07362 199.997 5.77728L167.662 5.77728C167.662 9.07362 167.662 12.3665 167.662 15.7218ZM213.294 15.7218 213.294 49.2994C216.965 49.2994 220.639 49.2994 224.297 49.2994L224.297 15.7218 234.939 15.7218C234.939 12.3665 234.939 9.07362 234.939 5.77728L202.607 5.77728C202.607 9.07362 202.607 12.3665 202.607 15.7218ZM269.002 5.77728C258.814 5.77728 251.909 5.77728 241.843 5.77728 241.843 20.1979 241.843 34.7574 241.843 49.2994 251.909 49.2994 259.377 49.2994 269.564 49.2994 269.564 46.0066 269.564 42.6512 269.564 39.4174 263.037 39.4174 259.318 39.4174 252.912 39.4174 252.912 36.808 252.912 34.3167 252.912 31.7664L267.697 31.7664C267.697 28.4735 267.697 25.1771 267.697 21.8843L252.912 21.8843 252.912 15.7218C259.318 15.7218 262.551 15.7218 269.002 15.7218 269.002 12.3665 269.002 9.01117 269.002 5.77728ZM312.594 49.3584 316.57 49.3584 316.57 5.77728C312.774 5.77728 308.995 5.77728 305.199 5.77728L305.199 27.1064 283.187 5.59685 279.151 5.59685 279.151 49.2994C282.93 49.2994 286.785 49.2994 290.64 49.2994L290.64 27.9114ZM334.037 15.7218 334.037 49.2994C337.712 49.2994 341.386 49.2994 345.043 49.2994L345.043 15.7218 355.685 15.7218C355.685 12.3665 355.685 9.07362 355.685 5.77728L323.35 5.77728C323.35 9.07362 323.35 12.3665 323.35 15.7218ZM389.749 5.77728C379.561 5.77728 372.656 5.77728 362.59 5.77728 362.59 20.1979 362.59 34.7574 362.59 49.2994 372.656 49.2994 380.123 49.2994 390.311 49.2994 390.311 46.0066 390.311 42.6512 390.311 39.4174 383.781 39.4174 380.064 39.4174 373.656 39.4174 373.656 36.808 373.656 34.3167 373.656 31.7664L388.441 31.7664C388.441 28.4735 388.441 25.1771 388.441 21.8843L373.656 21.8843 373.656 15.7218C380.064 15.7218 383.295 15.7218 389.749 15.7218 389.749 12.3665 389.749 9.01117 389.749 5.77728ZM433.403 5.77728 416.994 5.77728 416.994 49.2994 433.403 49.2994C461.762 49.178 461.762 5.89872 433.403 5.77728ZM428.122 15.9023 433.403 15.9023C447.265 15.9023 447.265 39.1606 433.403 39.1606L428.122 39.1606ZM479.978 39.917C476.745 39.917 473.316 38.1717 473.316 34.622L473.316 5.77728C469.84 5.77728 466.165 5.77728 462.688 5.77728L462.688 34.8163C462.688 44.3827 471.085 49.9206 479.978 49.9206 488.92 49.9206 497.192 44.3827 497.192 34.8163L497.192 5.77728C493.716 5.77728 490.103 5.77728 486.568 5.77728L486.568 34.622C486.568 38.1717 483.212 39.917 479.978 39.917ZM541.53 5.77728 525.118 5.77728 525.118 49.2994 541.53 49.2994C569.885 49.178 569.885 5.89872 541.53 5.77728ZM536.245 15.9023 541.53 15.9023C555.388 15.9023 555.388 39.1606 541.53 39.1606L536.245 39.1606ZM598.411 5.77728C588.224 5.77728 581.319 5.77728 571.253 5.77728 571.253 20.1979 571.253 34.7574 571.253 49.2994 581.319 49.2994 588.786 49.2994 598.973 49.2994 598.973 46.0066 598.973 42.6512 598.973 39.4174 592.446 39.4174 588.727 39.4174 582.321 39.4174 582.321 36.808 582.321 34.3167 582.321 31.7664L597.106 31.7664C597.106 28.4735 597.106 25.1771 597.106 21.8843L582.321 21.8843 582.321 15.7218C588.727 15.7218 591.961 15.7218 598.411 15.7218 598.411 12.3665 598.411 9.01117 598.411 5.77728ZM587.602 2.90772 594.008-4.36159 594.008-5.28803 584.552-8.45947 579.83 1.92229 579.83 2.90772ZM605.947 27.5297C606.01 42.332 617.197 49.7991 628.262 49.7401 637.523 49.7401 647.284 44.8824 648.908 32.5714 645.112 32.5714 641.697 32.5714 637.964 32.5714 636.78 37.2314 632.984 39.5978 628.262 39.5978 621.676 39.5388 617.44 33.9385 617.44 27.5297 617.44 20.3194 621.735 15.4165 628.262 15.4165 632.922 15.4165 636.218 17.4047 637.78 21.8253 641.576 21.8253 644.931 21.8253 648.727 21.8253 647.041 10.1944 637.28 5.27762 628.262 5.27762 617.197 5.27762 606.01 12.7447 605.947 27.5297ZM699.387 27.5921C699.387-2.49481 654.744-2.49481 654.744 27.5921 654.744 57.7554 699.387 57.7554 699.387 27.5921ZM666.187 27.5921C666.187 11.9258 688.016 11.9258 688.016 27.5921 688.016 43.3938 666.187 43.3938 666.187 27.5921ZM718.918 5.77728C715.126 5.77728 711.451 5.77728 707.718 5.77728L707.718 49.2994C716.552 49.2994 725.751 49.2994 734.706 49.2994 734.706 45.5659 734.706 43.0156 734.706 39.2959L718.918 39.2959C718.918 20.76 718.918 28.2896 718.918 5.77728ZM753.488 5.77728C749.696 5.77728 746.021 5.77728 742.288 5.77728L742.288 49.2994C751.122 49.2994 760.321 49.2994 769.276 49.2994 769.276 45.5659 769.276 43.0156 769.276 39.2959L753.488 39.2959C753.488 20.76 753.488 28.2896 753.488 5.77728ZM804.589 49.2994 815.474 49.2994 815.474 47.6894 795.831 5.21516 791.036 5.21516 771.452 47.6894 771.452 49.2994 782.337 49.2994 784.887 43.8345 802.038 43.8345ZM798.381 34.2577 788.544 34.2577 793.402 22.8107ZM818.513 27.5297C818.59 42.391 829.78 49.7991 840.845 49.7991 848.86 49.7991 857.132 46.3085 860.245 37.2314 861.733 33.012 861.733 28.8378 861.491 24.4971L840.904 24.4971 840.904 34.1363 850.165 34.1363C848.177 38.2931 845.321 39.4763 840.845 39.4763 834.256 39.4763 830.023 34.7574 830.023 27.5297 830.023 20.8815 833.815 15.4165 840.845 15.4165 845.262 15.4165 848.114 16.905 849.922 20.6386L860.866 20.6386C858.756 9.81617 849.603 5.27762 840.845 5.21516 829.78 5.21516 818.59 12.6718 818.513 27.5297ZM897.476 5.77728C887.292 5.77728 880.384 5.77728 870.321 5.77728 870.321 20.1979 870.321 34.7574 870.321 49.2994 880.384 49.2994 887.854 49.2994 898.038 49.2994 898.038 46.0066 898.038 42.6512 898.038 39.4174 891.512 39.4174 887.792 39.4174 881.387 39.4174 881.387 36.808 881.387 34.3167 881.387 31.7664L896.172 31.7664C896.172 28.4735 896.172 25.1771 896.172 21.8843L881.387 21.8843 881.387 15.7218C887.792 15.7218 891.026 15.7218 897.476 15.7218 897.476 12.3665 897.476 9.01117 897.476 5.77728ZM910.783 49.6777C914.152 49.6777 916.887 47.4327 916.887 44.0184 916.887 40.5242 914.152 38.2341 910.783 38.2341 907.306 38.2341 904.576 40.5242 904.576 44.0184 904.576 47.4327 907.306 49.6777 910.783 49.6777ZM928.441 49.6777C931.81 49.6777 934.545 47.4327 934.545 44.0184 934.545 40.5242 931.81 38.2341 928.441 38.2341 924.964 38.2341 922.234 40.5242 922.234 44.0184 922.234 47.4327 924.964 49.6777 928.441 49.6777ZM946.099 49.6777C949.468 49.6777 952.203 47.4327 952.203 44.0184 952.203 40.5242 949.468 38.2341 946.099 38.2341 942.622 38.2341 939.892 40.5242 939.892 44.0184 939.892 47.4327 942.622 49.6777 946.099 49.6777Z" stroke="#FFFFFF" stroke-width="2.33173" fill="none" transform="matrix(1 0 0 1.00211 151.927 201.891)"/></g></svg>