<svg width="466" height="94" xmlns="http://www.w3.org/2000/svg" xmlns:xlink="http://www.w3.org/1999/xlink" xml:space="preserve" overflow="hidden"><defs><clipPath id="clip0"><rect x="661" y="338" width="466" height="94"/></clipPath></defs><g clip-path="url(#clip0)" transform="translate(-661 -338)"><path d="M51.968 5.7797C41.7763 5.7797 34.8684 5.7797 24.7982 5.7797 24.7982 20.2064 24.7982 34.7719 24.7982 49.3201 34.8684 49.3201 42.3386 49.3201 52.5269 49.3201 52.5269 46.0259 52.5269 42.6691 52.5269 39.4339 45.9974 39.4339 42.2762 39.4339 35.8682 39.4339 35.8682 36.8235 35.8682 34.3311 35.8682 31.7797L50.6593 31.7797C50.6593 28.4854 50.6593 25.1877 50.6593 21.8934L35.8682 21.8934 35.8682 15.7284C42.2762 15.7284 45.5114 15.7284 51.968 15.7284 51.968 12.3717 51.968 9.01495 51.968 5.7797ZM95.5744 49.3791 99.5525 49.3791 99.5525 5.7797C95.7584 5.7797 91.9747 5.7797 88.1805 5.7797L88.1805 27.1177 66.1587 5.59919 62.1181 5.59919 62.1181 49.3201C65.9018 49.3201 69.7584 49.3201 73.615 49.3201L73.615 27.9231ZM155.413 49.3201 166.302 49.3201 166.302 47.7094 146.651 5.21735 141.85 5.21735 122.262 47.7094 122.262 49.3201 133.148 49.3201 135.699 43.8528 152.861 43.8528ZM149.202 34.2721 139.361 34.2721 144.221 22.8203ZM178.424 15.7284 178.424 49.3201C182.1 49.3201 185.776 49.3201 189.435 49.3201L189.435 15.7284 200.081 15.7284C200.081 12.3717 200.081 9.07743 200.081 5.7797L167.732 5.7797C167.732 9.07743 167.732 12.3717 167.732 15.7284ZM213.383 15.7284 213.383 49.3201C217.056 49.3201 220.732 49.3201 224.391 49.3201L224.391 15.7284 235.037 15.7284C235.037 12.3717 235.037 9.07743 235.037 5.7797L202.692 5.7797C202.692 9.07743 202.692 12.3717 202.692 15.7284ZM269.115 5.7797C258.923 5.7797 252.015 5.7797 241.945 5.7797 241.945 20.2064 241.945 34.7719 241.945 49.3201 252.015 49.3201 259.485 49.3201 269.677 49.3201 269.677 46.0259 269.677 42.6691 269.677 39.4339 263.148 39.4339 259.426 39.4339 253.018 39.4339 253.018 36.8235 253.018 34.3311 253.018 31.7797L267.81 31.7797C267.81 28.4854 267.81 25.1877 267.81 21.8934L253.018 21.8934 253.018 15.7284C259.426 15.7284 262.662 15.7284 269.115 15.7284 269.115 12.3717 269.115 9.01495 269.115 5.7797ZM312.725 49.3791 316.703 49.3791 316.703 5.7797C312.905 5.7797 309.125 5.7797 305.327 5.7797L305.327 27.1177 283.305 5.59919 279.268 5.59919 279.268 49.3201C283.048 49.3201 286.905 49.3201 290.762 49.3201L290.762 27.9231ZM334.177 15.7284 334.177 49.3201C337.853 49.3201 341.529 49.3201 345.188 49.3201L345.188 15.7284 355.835 15.7284C355.835 12.3717 355.835 9.07743 355.835 5.7797L323.486 5.7797C323.486 9.07743 323.486 12.3717 323.486 15.7284ZM389.912 5.7797C379.721 5.7797 372.813 5.7797 362.742 5.7797 362.742 20.2064 362.742 34.7719 362.742 49.3201 372.813 49.3201 380.283 49.3201 390.475 49.3201 390.475 46.0259 390.475 42.6691 390.475 39.4339 383.942 39.4339 380.224 39.4339 373.812 39.4339 373.812 36.8235 373.812 34.3311 373.812 31.7797L388.604 31.7797C388.604 28.4854 388.604 25.1877 388.604 21.8934L373.812 21.8934 373.812 15.7284C380.224 15.7284 383.456 15.7284 389.912 15.7284 389.912 12.3717 389.912 9.01495 389.912 5.7797ZM433.585 5.7797 417.169 5.7797 417.169 49.3201 433.585 49.3201C461.955 49.1986 461.955 5.9012 433.585 5.7797ZM428.301 15.9089 433.585 15.9089C447.452 15.9089 447.452 39.177 433.585 39.177L428.301 39.177ZM480.18 39.9338C476.944 39.9338 473.515 38.1877 473.515 34.6366L473.515 5.7797C470.037 5.7797 466.361 5.7797 462.882 5.7797L462.882 34.831C462.882 44.4013 471.283 49.9415 480.18 49.9415 489.125 49.9415 497.401 44.4013 497.401 34.831L497.401 5.7797C493.923 5.7797 490.309 5.7797 486.772 5.7797L486.772 34.6366C486.772 38.1877 483.415 39.9338 480.18 39.9338ZM541.757 5.7797 525.338 5.7797 525.338 49.3201 541.757 49.3201C570.124 49.1986 570.124 5.9012 541.757 5.7797ZM536.47 15.9089 541.757 15.9089C555.621 15.9089 555.621 39.177 541.757 39.177L536.47 39.177ZM598.662 5.7797C588.47 5.7797 581.562 5.7797 571.492 5.7797 571.492 20.2064 571.492 34.7719 571.492 49.3201 581.562 49.3201 589.033 49.3201 599.224 49.3201 599.224 46.0259 599.224 42.6691 599.224 39.4339 592.695 39.4339 588.974 39.4339 582.565 39.4339 582.565 36.8235 582.565 34.3311 582.565 31.7797L597.357 31.7797C597.357 28.4854 597.357 25.1877 597.357 21.8934L582.565 21.8934 582.565 15.7284C588.974 15.7284 592.209 15.7284 598.662 15.7284 598.662 12.3717 598.662 9.01495 598.662 5.7797ZM587.849 2.90894 594.257-4.36342 594.257-5.29025 584.798-8.46301 580.073 1.92309 580.073 2.90894ZM606.202 27.5412C606.264 42.3498 617.456 49.82 628.525 49.761 637.79 49.761 647.555 44.9012 649.18 32.585 645.382 32.585 641.966 32.585 638.231 32.585 637.047 37.247 633.25 39.6144 628.525 39.6144 621.937 39.5554 617.698 33.9527 617.698 27.5412 617.698 20.3279 621.996 15.423 628.525 15.423 633.187 15.423 636.485 17.412 638.047 21.8344 641.845 21.8344 645.202 21.8344 648.999 21.8344 647.312 10.1987 637.547 5.27983 628.525 5.27983 617.456 5.27983 606.264 12.7501 606.202 27.5412ZM699.68 27.6037C699.68-2.49586 655.018-2.49586 655.018 27.6037 655.018 57.7797 699.68 57.7797 699.68 27.6037ZM666.467 27.6037C666.467 11.9308 688.305 11.9308 688.305 27.6037 688.305 43.412 666.467 43.412 666.467 27.6037ZM719.22 5.7797C715.426 5.7797 711.75 5.7797 708.015 5.7797L708.015 49.3201C716.852 49.3201 726.055 49.3201 735.014 49.3201 735.014 45.585 735.014 43.0336 735.014 39.3124L719.22 39.3124C719.22 20.7687 719.22 28.3014 719.22 5.7797ZM753.804 5.7797C750.01 5.7797 746.334 5.7797 742.599 5.7797L742.599 49.3201C751.437 49.3201 760.639 49.3201 769.599 49.3201 769.599 45.585 769.599 43.0336 769.599 39.3124L753.804 39.3124C753.804 20.7687 753.804 28.3014 753.804 5.7797ZM804.926 49.3201 815.816 49.3201 815.816 47.7094 796.165 5.21735 791.367 5.21735 771.775 47.7094 771.775 49.3201 782.665 49.3201 785.216 43.8528 802.375 43.8528ZM798.716 34.2721 788.875 34.2721 793.735 22.8203ZM818.856 27.5412C818.933 42.4088 830.128 49.82 841.198 49.82 849.216 49.82 857.492 46.3279 860.606 37.247 862.095 33.0259 862.095 28.8499 861.852 24.5073L841.257 24.5073 841.257 34.1506 850.522 34.1506C848.533 38.3092 845.676 39.4929 841.198 39.4929 834.606 39.4929 830.371 34.7719 830.371 27.5412 830.371 20.8902 834.165 15.423 841.198 15.423 845.617 15.423 848.47 16.9121 850.279 20.6472L861.227 20.6472C859.116 9.82029 849.959 5.27983 841.198 5.21735 830.128 5.21735 818.933 12.6772 818.856 27.5412ZM897.853 5.7797C887.664 5.7797 880.753 5.7797 870.686 5.7797 870.686 20.2064 870.686 34.7719 870.686 49.3201 880.753 49.3201 888.227 49.3201 898.415 49.3201 898.415 46.0259 898.415 42.6691 898.415 39.4339 891.885 39.4339 888.164 39.4339 881.756 39.4339 881.756 36.8235 881.756 34.3311 881.756 31.7797L896.547 31.7797C896.547 28.4854 896.547 25.1877 896.547 21.8934L881.756 21.8934 881.756 15.7284C888.164 15.7284 891.399 15.7284 897.853 15.7284 897.853 12.3717 897.853 9.01495 897.853 5.7797ZM911.165 49.6985C914.536 49.6985 917.271 47.4526 917.271 44.0368 917.271 40.5412 914.536 38.2502 911.165 38.2502 907.687 38.2502 904.955 40.5412 904.955 44.0368 904.955 47.4526 907.687 49.6985 911.165 49.6985ZM928.83 49.6985C932.201 49.6985 934.936 47.4526 934.936 44.0368 934.936 40.5412 932.201 38.2502 928.83 38.2502 925.352 38.2502 922.62 40.5412 922.62 44.0368 922.62 47.4526 925.352 49.6985 928.83 49.6985ZM946.496 49.6985C949.866 49.6985 952.602 47.4526 952.602 44.0368 952.602 40.5412 949.866 38.2502 946.496 38.2502 943.018 38.2502 940.286 40.5412 940.286 44.0368 940.286 47.4526 943.018 49.6985 946.496 49.6985Z" stroke="#FFFFFF" stroke-width="2.33271" fill="none" transform="matrix(1 0 0 1.00169 151.248 357.891)"/></g></svg>