<svg width="1280" height="75" xmlns="http://www.w3.org/2000/svg" xmlns:xlink="http://www.w3.org/1999/xlink" xml:space="preserve" overflow="hidden"><defs><clipPath id="clip0"><rect x="0" y="465" width="1280" height="75"/></clipPath></defs><g clip-path="url(#clip0)" transform="matrix(1 0 0 1 0 -465)"><path d="M27.6424 15.1146 11.2222 15.1146 11.2222 58.6667 27.6424 58.6667C56.0174 58.5451 56.0174 15.2361 27.6424 15.1146ZM22.3576 25.2465 27.6424 25.2465C41.5104 25.2465 41.5104 48.5208 27.6424 48.5208L22.3576 48.5208ZM84.5625 15.1146C74.3715 15.1146 67.4583 15.1146 57.3889 15.1146 57.3889 29.5451 57.3889 44.1146 57.3889 58.6667 67.4583 58.6667 74.934 58.6667 85.125 58.6667 85.125 55.3715 85.125 52.0139 85.125 48.7778 78.5938 48.7778 74.8715 48.7778 68.4618 48.7778 68.4618 46.1667 68.4618 43.6736 68.4618 41.1215L83.2569 41.1215C83.2569 37.8264 83.2569 34.5278 83.2569 31.2326L68.4618 31.2326 68.4618 25.066C74.8715 25.066 78.1076 25.066 84.5625 25.066 84.5625 21.7083 84.5625 18.3507 84.5625 15.1146ZM73.7465 12.2431 80.1597 4.96875 80.1597 4.04167 70.6944 0.868054 65.9722 11.2569 65.9722 12.2431ZM100.75 15.1146 90.0417 15.1146 90.0417 16.7882 108.708 59.1667 113.434 59.1667 131.92 16.7882 131.92 15.1146 121.212 15.1146 111.26 39.816 110.958 39.816ZM165.573 15.1146C155.378 15.1146 148.469 15.1146 138.396 15.1146 138.396 29.5451 138.396 44.1146 138.396 58.6667 148.469 58.6667 155.941 58.6667 166.135 58.6667 166.135 55.3715 166.135 52.0139 166.135 48.7778 159.604 48.7778 155.882 48.7778 149.472 48.7778 149.472 46.1667 149.472 43.6736 149.472 41.1215L164.267 41.1215C164.267 37.8264 164.267 34.5278 164.267 31.2326L149.472 31.2326 149.472 25.066C155.882 25.066 159.118 25.066 165.573 25.066 165.573 21.7083 165.573 18.3507 165.573 15.1146ZM186.861 15.1146C183.066 15.1146 179.389 15.1146 175.653 15.1146L175.653 58.6667C184.493 58.6667 193.698 58.6667 202.66 58.6667 202.66 54.9306 202.66 52.3785 202.66 48.6562L186.861 48.6562C186.861 30.1076 186.861 37.6424 186.861 15.1146ZM252.309 36.9444C252.309 6.8368 207.632 6.8368 207.632 36.9444 207.632 67.1285 252.309 67.1285 252.309 36.9444ZM219.087 36.9444C219.087 21.2674 240.931 21.2674 240.931 36.9444 240.931 52.757 219.087 52.757 219.087 36.9444ZM271.854 58.6667 271.854 47.5312 279.875 47.5312C300.715 47.5312 300.715 15.1771 279.875 15.1146 273.465 15.1146 266.993 15.1146 260.719 15.1146 260.719 29.6667 260.719 44.1736 260.719 58.6667 264.378 58.6667 268.118 58.6667 271.854 58.6667ZM279.812 37.5069 271.854 37.5069C271.854 33.9688 271.854 28.6215 271.854 25.066 274.406 25.066 277.201 25.0035 279.812 25.066 286.285 25.125 285.906 37.5069 279.812 37.5069ZM315.035 58.6667 315.035 47.5312 323.056 47.5312C343.896 47.5312 343.896 15.1771 323.056 15.1146 316.642 15.1146 310.174 15.1146 303.899 15.1146 303.899 29.6667 303.899 44.1736 303.899 58.6667 307.559 58.6667 311.295 58.6667 315.035 58.6667ZM322.993 37.5069 315.035 37.5069C315.035 33.9688 315.035 28.6215 315.035 25.066 317.587 25.066 320.382 25.0035 322.993 25.066 329.465 25.125 329.083 37.5069 322.993 37.5069ZM374.254 15.1146C364.062 15.1146 357.149 15.1146 347.08 15.1146 347.08 29.5451 347.08 44.1146 347.08 58.6667 357.149 58.6667 364.625 58.6667 374.816 58.6667 374.816 55.3715 374.816 52.0139 374.816 48.7778 368.285 48.7778 364.562 48.7778 358.153 48.7778 358.153 46.1667 358.153 43.6736 358.153 41.1215L372.948 41.1215C372.948 37.8264 372.948 34.5278 372.948 31.2326L358.153 31.2326 358.153 25.066C364.562 25.066 367.799 25.066 374.254 25.066 374.254 21.7083 374.254 18.3507 374.254 15.1146ZM401.271 49.2778C398.035 49.2778 394.604 47.5312 394.604 43.9792L394.604 15.1146C391.125 15.1146 387.448 15.1146 383.969 15.1146L383.969 44.1736C383.969 53.7465 392.372 59.2882 401.271 59.2882 410.219 59.2882 418.618 53.7465 418.618 44.1736L418.618 15.1146C415.139 15.1146 411.403 15.1146 407.865 15.1146L407.865 43.9792C407.865 47.5312 404.507 49.2778 401.271 49.2778ZM457.569 43.2326C468.583 35.7743 465.469 15.1771 448.365 15.1146 442.017 15.1146 435.545 15.1146 429.257 15.1146 429.257 29.6667 429.257 44.1736 429.257 58.6667 432.872 58.6667 436.67 58.6667 440.406 58.6667L440.406 45.8472 446.194 45.8472 453.653 58.6667 466.094 58.6667 466.094 57.0556ZM448.365 35.8368 440.406 35.8368C440.406 32.3403 440.406 28.6215 440.406 25.066 443.017 25.066 445.754 25.0035 448.365 25.066 454.715 25.125 454.396 35.8368 448.365 35.8368ZM511.58 15.7986 504.302 38.9479 504.104 38.9479 502.177 31.5382 496.587 15.1146 485.316 15.1146 485.316 16.7882 500.629 59.1076 506.795 59.1076 513.754 38.1285 513.948 38.1285 520.906 59.1076 527.316 59.1076 542.448 16.7882 542.448 15.1146 531.358 15.1146 525.83 31.5382 523.899 38.9479 523.715 38.9479 516.302 15.7986C514.573 15.7986 513.326 15.7986 511.58 15.7986ZM576.156 15.1146C565.962 15.1146 559.049 15.1146 548.979 15.1146 548.979 29.5451 548.979 44.1146 548.979 58.6667 559.049 58.6667 566.524 58.6667 576.715 58.6667 576.715 55.3715 576.715 52.0139 576.715 48.7778 570.184 48.7778 566.462 48.7778 560.052 48.7778 560.052 46.1667 560.052 43.6736 560.052 41.1215L574.847 41.1215C574.847 37.8264 574.847 34.5278 574.847 31.2326L560.052 31.2326 560.052 25.066C566.462 25.066 569.698 25.066 576.156 25.066 576.156 21.7083 576.156 18.3507 576.156 15.1146ZM618.469 28.4826C618.469 20.9653 612.438 15.1146 604.903 15.1146L586.309 15.1146 586.309 58.6667 606.712 58.6667C615.611 58.6667 620.215 52.5 620.274 44.9201 620.274 41.0625 618.59 37.8264 615.052 36.0174 617.163 34.2708 618.469 31.0972 618.469 28.4826ZM605.906 41.3646C610.385 41.3646 610.448 48.7778 605.965 48.7778L597.066 48.7778 597.066 41.3646ZM604.038 25.066C608.517 25.066 608.517 32.2188 604.097 32.2188L597.066 32.2188 597.066 25.066ZM671.424 44.5382C671.424 40.6806 671.424 38.3264 671.424 34.5903L657.42 34.5903 657.42 25.066 673.219 25.066C673.219 21.3299 673.219 18.7778 673.219 15.1146 664.33 15.1146 654.99 15.1146 646.104 15.1146L646.104 58.6667C649.885 58.6667 653.684 58.6667 657.42 58.6667L657.42 44.5382ZM698.677 49.2778C695.441 49.2778 692.01 47.5312 692.01 43.9792L692.01 15.1146C688.531 15.1146 684.854 15.1146 681.375 15.1146L681.375 44.1736C681.375 53.7465 689.774 59.2882 698.677 59.2882 707.625 59.2882 716.024 53.7465 716.024 44.1736L716.024 15.1146C712.545 15.1146 708.809 15.1146 705.271 15.1146L705.271 43.9792C705.271 47.5312 701.913 49.2778 698.677 49.2778ZM737.872 15.1146C734.076 15.1146 730.399 15.1146 726.663 15.1146L726.663 58.6667C735.504 58.6667 744.708 58.6667 753.67 58.6667 753.67 54.9306 753.67 52.3785 753.67 48.6562L737.872 48.6562C737.872 30.1076 737.872 37.6424 737.872 15.1146ZM772.465 15.1146C768.67 15.1146 764.993 15.1146 761.257 15.1146L761.257 58.6667C770.097 58.6667 779.302 58.6667 788.264 58.6667 788.264 54.9306 788.264 52.3785 788.264 48.6562L772.465 48.6562C772.465 30.1076 772.465 37.6424 772.465 15.1146ZM803.629 45.3438C799.844 45.3438 796.608 45.3438 792.872 45.3438 792.615 64.5139 828.083 64.0139 828.083 45.7257 828.083 34.8333 819.622 33.7257 810.979 32.7812 807.059 32.3403 803.823 31.6597 804.066 28.3611 804.448 23.1979 816.142 22.7118 816.142 28.4826 819.941 28.4826 822.799 28.4826 826.715 28.4826 826.958 9.69444 793.115 9.69444 793.497 28.4826 793.618 37.9479 799.844 41.184 809.292 41.8646 813.653 42.1076 817.254 42.6111 817.254 45.6632 817.254 50.7674 803.629 50.8889 803.629 45.3438ZM842.639 25.066 842.639 58.6667C846.316 58.6667 849.99 58.6667 853.653 58.6667L853.653 25.066 864.299 25.066C864.299 21.7083 864.299 18.4132 864.299 15.1146L831.945 15.1146C831.945 18.4132 831.945 21.7083 831.945 25.066ZM898.885 58.6667 909.778 58.6667 909.778 57.0556 890.122 14.5521 885.323 14.5521 865.726 57.0556 865.726 58.6667 876.618 58.6667 879.17 53.1979 896.337 53.1979ZM892.674 43.6146 882.83 43.6146 887.691 32.1597ZM912.896 36.8819C912.958 51.6945 924.153 59.1667 935.226 59.1076 944.493 59.1076 954.26 54.2465 955.885 41.9271 952.087 41.9271 948.67 41.9271 944.934 41.9271 943.75 46.5903 939.951 48.9583 935.226 48.9583 928.635 48.8993 924.396 43.2951 924.396 36.8819 924.396 29.6667 928.695 24.7604 935.226 24.7604 939.889 24.7604 943.188 26.75 944.75 31.1736 948.549 31.1736 951.906 31.1736 955.705 31.1736 954.017 19.5347 944.25 14.6146 935.226 14.6146 924.153 14.6146 912.958 22.0868 912.896 36.8819ZM975.792 58.6667 975.792 42.0486C977.219 42.0486 978.587 42.0486 980.09 41.8056L989.677 58.6667 1002.06 58.6667 1002.06 56.9201 990.222 37.7639C998.882 32.2188 998.622 24.0174 998.622 15.1146 994.764 15.1146 990.983 15.1146 987.184 15.1146 987.184 23.2569 987.747 31.5972 976.597 31.5972L975.792 31.5972 975.792 15.1146C971.934 15.1146 968.198 15.1146 964.476 15.1146L964.476 58.6667C968.198 58.6667 971.934 58.6667 975.792 58.6667ZM1055.99 15.1146 1038.26 15.1146C1038.26 18.3507 1038.26 21.5868 1038.26 25.0035L1044.61 25.0035 1044.61 43.9792C1044.61 47.4722 1042.44 49.2014 1039.2 49.2014 1035.97 49.2014 1033.41 47.4097 1033.41 43.9792L1033.41 38.5104C1029.92 38.5104 1026.32 38.5104 1022.89 38.5104L1022.89 44.1736C1022.89 53.684 1030.24 59.1667 1039.2 59.1667 1048.15 59.1667 1055.99 53.684 1055.99 44.1736ZM1083.63 49.2778C1080.39 49.2778 1076.96 47.5312 1076.96 43.9792L1076.96 15.1146C1073.48 15.1146 1069.8 15.1146 1066.32 15.1146L1066.32 44.1736C1066.32 53.7465 1074.72 59.2882 1083.63 59.2882 1092.57 59.2882 1100.97 53.7465 1100.97 44.1736L1100.97 15.1146C1097.49 15.1146 1093.76 15.1146 1090.22 15.1146L1090.22 43.9792C1090.22 47.5312 1086.86 49.2778 1083.63 49.2778ZM1145.15 58.7257 1149.13 58.7257 1149.13 15.1146C1145.33 15.1146 1141.55 15.1146 1137.75 15.1146L1137.75 36.4583 1115.73 14.934 1111.69 14.934 1111.69 58.6667C1115.47 58.6667 1119.33 58.6667 1123.18 58.6667L1123.18 37.2639ZM1173.16 48.8993 1173.16 24.8229 1178.25 24.8229C1178.25 21.0868 1178.25 18.7778 1178.25 15.1146 1171.15 15.1146 1164.14 15.1146 1157.04 15.1146 1157.04 18.7778 1157.04 21.0868 1157.04 24.8229L1162.15 24.8229 1162.15 48.8993 1156.6 48.8993C1156.6 52.5764 1156.6 54.8681 1156.6 58.6667 1164 58.6667 1171.29 58.6667 1178.69 58.6667 1178.69 54.8681 1178.69 52.5764 1178.69 48.8993ZM1227.96 36.9444C1227.96 6.8368 1183.29 6.8368 1183.29 36.9444 1183.29 67.1285 1227.96 67.1285 1227.96 36.9444ZM1194.74 36.9444C1194.74 21.2674 1216.58 21.2674 1216.58 36.9444 1216.58 52.757 1194.74 52.757 1194.74 36.9444ZM1264.61 43.2326C1275.63 35.7743 1272.51 15.1771 1255.41 15.1146 1249.06 15.1146 1242.59 15.1146 1236.3 15.1146 1236.3 29.6667 1236.3 44.1736 1236.3 58.6667 1239.91 58.6667 1243.71 58.6667 1247.45 58.6667L1247.45 45.8472 1253.23 45.8472 1260.69 58.6667 1273.13 58.6667 1273.13 57.0556ZM1255.41 35.8368 1247.45 35.8368C1247.45 32.3403 1247.45 28.6215 1247.45 25.066 1250.06 25.066 1252.79 25.0035 1255.41 25.066 1261.76 25.125 1261.44 35.8368 1255.41 35.8368Z" stroke="#FFFFFF" stroke-width="2.5" fill="none" transform="matrix(1 0 0 1.00741 5.53086e-06 464.271)"/></g></svg>