<svg width="647" height="149" xmlns="http://www.w3.org/2000/svg" xmlns:xlink="http://www.w3.org/1999/xlink" xml:space="preserve" overflow="hidden"><defs><clipPath id="clip0"><rect x="7" y="514" width="647" height="149"/></clipPath></defs><g clip-path="url(#clip0)" transform="translate(-7 -514)"><path d="M21.9562 5.77886 5.54284 5.77886 5.54284 49.313 21.9562 49.313C50.3195 49.1915 50.3195 5.90034 21.9562 5.77886ZM16.6737 15.9066 21.9562 15.9066C35.8185 15.9066 35.8185 39.1713 21.9562 39.1713L16.6737 39.1713ZM78.8528 5.77886C68.6661 5.77886 61.7557 5.77886 51.6904 5.77886 51.6904 20.2035 51.6904 34.7669 51.6904 49.313 61.7557 49.313 69.2283 49.313 79.4151 49.313 79.4151 46.0192 79.4151 42.6629 79.4151 39.4281 72.8865 39.4281 69.1658 39.4281 62.7588 39.4281 62.7588 36.8181 62.7588 34.3261 62.7588 31.7751L77.5478 31.7751C77.5478 28.4813 77.5478 25.184 77.5478 21.8903L62.7588 21.8903 62.7588 15.7261C69.1658 15.7261 72.4006 15.7261 78.8528 15.7261 78.8528 12.3699 78.8528 9.01363 78.8528 5.77886ZM68.0413 2.90852 74.4519-4.36278 74.4519-5.28948 64.9905-8.46178 60.2702 1.92281 60.2702 2.90852ZM95.0336 5.77886 84.3297 5.77886 84.3297 7.45178 102.989 49.8127 107.712 49.8127 126.191 7.45178 126.191 5.77886 115.487 5.77886 105.54 30.47 105.238 30.47ZM159.83 5.77886C149.64 5.77886 142.733 5.77886 132.664 5.77886 132.664 20.2035 132.664 34.7669 132.664 49.313 142.733 49.313 150.202 49.313 160.392 49.313 160.392 46.0192 160.392 42.6629 160.392 39.4281 153.863 39.4281 150.143 39.4281 143.736 39.4281 143.736 36.8181 143.736 34.3261 143.736 31.7751L158.525 31.7751C158.525 28.4813 158.525 25.184 158.525 21.8903L143.736 21.8903 143.736 15.7261C150.143 15.7261 153.378 15.7261 159.83 15.7261 159.83 12.3699 159.83 9.01363 159.83 5.77886ZM181.109 5.77886C177.316 5.77886 173.64 5.77886 169.905 5.77886L169.905 49.313C178.742 49.313 187.943 49.313 196.901 49.313 196.901 45.5784 196.901 43.0273 196.901 39.3067L181.109 39.3067C181.109 20.7657 181.109 28.2973 181.109 5.77886ZM246.53 27.5997C246.53-2.4955 201.871-2.4955 201.871 27.5997 201.871 57.7713 246.53 57.7713 246.53 27.5997ZM213.322 27.5997C213.322 11.9291 235.156 11.9291 235.156 27.5997 235.156 43.4057 213.322 43.4057 213.322 27.5997ZM266.067 49.313 266.067 38.1821 274.085 38.1821C294.916 38.1821 294.916 5.84133 274.085 5.77886 267.678 5.77886 261.208 5.77886 254.936 5.77886 254.936 20.3249 254.936 34.8259 254.936 49.313 258.595 49.313 262.333 49.313 266.067 49.313ZM274.022 28.162 266.067 28.162C266.067 24.6252 266.067 19.2802 266.067 15.7261 268.618 15.7261 271.412 15.6637 274.022 15.7261 280.492 15.7851 280.113 28.162 274.022 28.162ZM309.23 49.313 309.23 38.1821 317.247 38.1821C338.079 38.1821 338.079 5.84133 317.247 5.77886 310.837 5.77886 304.371 5.77886 298.099 5.77886 298.099 20.3249 298.099 34.8259 298.099 49.313 301.757 49.313 305.492 49.313 309.23 49.313ZM317.185 28.162 309.23 28.162C309.23 24.6252 309.23 19.2802 309.23 15.7261 311.781 15.7261 314.575 15.6637 317.185 15.7261 323.654 15.7851 323.273 28.162 317.185 28.162ZM368.424 5.77886C358.237 5.77886 351.327 5.77886 341.262 5.77886 341.262 20.2035 341.262 34.7669 341.262 49.313 351.327 49.313 358.8 49.313 368.986 49.313 368.986 46.0192 368.986 42.6629 368.986 39.4281 362.458 39.4281 358.737 39.4281 352.33 39.4281 352.33 36.8181 352.33 34.3261 352.33 31.7751L367.119 31.7751C367.119 28.4813 367.119 25.184 367.119 21.8903L352.33 21.8903 352.33 15.7261C358.737 15.7261 361.972 15.7261 368.424 15.7261 368.424 12.3699 368.424 9.01363 368.424 5.77886ZM395.43 39.9279C392.196 39.9279 388.766 38.1821 388.766 34.6315L388.766 5.77886C385.289 5.77886 381.613 5.77886 378.135 5.77886L378.135 34.8259C378.135 44.3948 386.535 49.9342 395.43 49.9342 404.375 49.9342 412.77 44.3948 412.77 34.8259L412.77 5.77886C409.293 5.77886 405.558 5.77886 402.021 5.77886L402.021 34.6315C402.021 38.1821 398.665 39.9279 395.43 39.9279ZM451.706 33.8853C462.715 26.43 459.602 5.84133 442.505 5.77886 436.16 5.77886 429.69 5.77886 423.405 5.77886 423.405 20.3249 423.405 34.8259 423.405 49.313 427.018 49.313 430.815 49.313 434.55 49.313L434.55 36.4988 440.335 36.4988 447.791 49.313 460.226 49.313 460.226 47.7025ZM442.505 26.4925 434.55 26.4925C434.55 22.9974 434.55 19.2802 434.55 15.7261 437.16 15.7261 439.895 15.6637 442.505 15.7261 448.853 15.7851 448.533 26.4925 442.505 26.4925ZM505.694 6.4626 498.419 29.6023 498.221 29.6023 496.295 22.1957 490.707 5.77886 479.441 5.77886 479.441 7.45178 494.747 49.7537 500.911 49.7537 507.866 28.7832 508.061 28.7832 515.016 49.7537 521.423 49.7537 536.549 7.45178 536.549 5.77886 525.463 5.77886 519.938 22.1957 518.008 29.6023 517.824 29.6023 510.414 6.4626C508.686 6.4626 507.44 6.4626 505.694 6.4626ZM570.243 5.77886C560.053 5.77886 553.143 5.77886 543.078 5.77886 543.078 20.2035 543.078 34.7669 543.078 49.313 553.143 49.313 560.615 49.313 570.802 49.313 570.802 46.0192 570.802 42.6629 570.802 39.4281 564.274 39.4281 560.553 39.4281 554.146 39.4281 554.146 36.8181 554.146 34.3261 554.146 31.7751L568.935 31.7751C568.935 28.4813 568.935 25.184 568.935 21.8903L554.146 21.8903 554.146 15.7261C560.553 15.7261 563.788 15.7261 570.243 15.7261 570.243 12.3699 570.243 9.01363 570.243 5.77886ZM612.539 19.1414C612.539 11.6271 606.51 5.77886 598.978 5.77886L580.392 5.77886 580.392 49.313 600.786 49.313C609.682 49.313 614.284 43.1488 614.343 35.5721 614.343 31.7161 612.66 28.4813 609.123 26.673 611.233 24.9272 612.539 21.7549 612.539 19.1414ZM599.981 32.018C604.458 32.018 604.521 39.4281 600.04 39.4281L591.145 39.4281 591.145 32.018ZM598.114 15.7261C602.591 15.7261 602.591 22.876 598.173 22.876L591.145 22.876 591.145 15.7261Z" stroke="#FFFFFF" stroke-width="2.5" fill="none" transform="matrix(1.00079 0 0 1 7.00001 525.994)"/><path d="M30.8553 103.162C30.8553 99.3062 30.8553 96.953 30.8553 93.2184L16.8541 93.2184 16.8541 83.698 32.6462 83.698C32.6462 79.9635 32.6462 77.4124 32.6462 73.7508 23.7645 73.7508 14.4246 73.7508 5.54284 73.7508L5.54284 117.285C9.32253 117.285 13.1196 117.285 16.8541 117.285L16.8541 103.162ZM58.094 107.9C54.8627 107.9 51.4301 106.154 51.4301 102.603L51.4301 73.7508C47.9524 73.7508 44.2768 73.7508 40.7991 73.7508L40.7991 102.798C40.7991 112.367 49.1984 117.906 58.094 117.906 67.0383 117.906 75.4341 112.367 75.4341 102.798L75.4341 73.7508C71.9598 73.7508 68.2218 73.7508 64.6851 73.7508L64.6851 102.603C64.6851 106.154 61.3288 107.9 58.094 107.9ZM97.2758 73.7508C93.4787 73.7508 89.8032 73.7508 86.0686 73.7508L86.0686 117.285C94.9052 117.285 104.106 117.285 113.064 117.285 113.064 113.55 113.064 110.999 113.064 107.279L97.2758 107.279C97.2758 88.7376 97.2758 96.2692 97.2758 73.7508ZM131.855 73.7508C128.058 73.7508 124.383 73.7508 120.648 73.7508L120.648 117.285C129.485 117.285 138.686 117.285 147.644 117.285 147.644 113.55 147.644 110.999 147.644 107.279L131.855 107.279C131.855 88.7376 131.855 96.2692 131.855 73.7508ZM163.002 103.967C159.222 103.967 155.988 103.967 152.25 103.967 151.993 123.13 187.447 122.63 187.447 104.349 187.447 93.4614 178.992 92.3542 170.35 91.4101 166.435 90.9693 163.2 90.2891 163.443 86.9918 163.821 81.8308 175.514 81.3448 175.514 87.1133 179.308 87.1133 182.164 87.1133 186.083 87.1133 186.326 68.3329 152.493 68.3329 152.874 87.1133 152.996 96.5747 159.222 99.8094 168.666 100.49 173.022 100.733 176.621 101.236 176.621 104.287 176.621 109.389 163.002 109.51 163.002 103.967ZM201.996 83.698 201.996 117.285C205.672 117.285 209.348 117.285 213.006 117.285L213.006 83.698 223.651 83.698C223.651 80.3418 223.651 77.048 223.651 73.7508L191.306 73.7508C191.306 77.048 191.306 80.3418 191.306 83.698ZM258.223 117.285 269.111 117.285 269.111 115.674 249.463 73.1885 244.663 73.1885 225.077 115.674 225.077 117.285 235.962 117.285 238.513 111.818 255.672 111.818ZM252.01 102.239 242.174 102.239 247.033 90.7889ZM272.228 95.5091C272.287 110.316 283.477 117.785 294.548 117.726 303.808 117.726 313.572 112.867 315.2 100.552 311.403 100.552 307.984 100.552 304.249 100.552 303.066 105.213 299.269 107.581 294.548 107.581 287.957 107.522 283.72 101.92 283.72 95.5091 283.72 88.2968 288.02 83.3926 294.548 83.3926 299.21 83.3926 302.503 85.3814 304.069 89.8032 307.862 89.8032 311.219 89.8032 315.016 89.8032 313.329 78.1691 303.565 73.251 294.548 73.251 283.477 73.251 272.287 80.7201 272.228 95.5091ZM335.094 117.285 335.094 100.674C336.524 100.674 337.888 100.674 339.391 100.431L348.974 117.285 361.347 117.285 361.347 115.539 349.519 96.3907C358.175 90.8479 357.918 82.6499 357.918 73.7508 354.059 73.7508 350.279 73.7508 346.482 73.7508 346.482 81.8898 347.044 90.2266 335.899 90.2266L335.094 90.2266 335.094 73.7508C331.238 73.7508 327.504 73.7508 323.783 73.7508L323.783 117.285C327.504 117.285 331.238 117.285 335.094 117.285ZM415.255 73.7508" stroke="#FFFFFF" stroke-width="2.5" fill="none" transform="matrix(1.00079 0 0 1 7.00001 525.994)"/></g></svg>