<svg width="1280" height="164" xmlns="http://www.w3.org/2000/svg" xmlns:xlink="http://www.w3.org/1999/xlink" xml:space="preserve" overflow="hidden"><defs><clipPath id="clip0"><rect x="-35" y="265" width="1280" height="164"/></clipPath></defs><g clip-path="url(#clip0)" transform="translate(35 -265)"><path d="M85.2569 118.122 93.2188 118.122 93.2188 30.8993C85.6215 30.8993 78.059 30.8993 70.4618 30.8993L70.4618 73.5833 26.4097 30.5347 18.3299 30.5347 18.3299 118C25.8924 118 33.6111 118 41.3264 118L41.3264 75.1944ZM141.274 98.4653 141.274 50.3125 151.451 50.3125C151.451 42.8368 151.451 38.2188 151.451 30.8993 137.264 30.8993 123.229 30.8993 109.042 30.8993 109.042 38.2188 109.042 42.8368 109.042 50.3125L119.247 50.3125 119.247 98.4653 108.16 98.4653C108.16 105.816 108.16 110.406 108.16 118 122.955 118 137.538 118 152.333 118 152.333 110.406 152.333 105.816 152.333 98.4653ZM161.681 74.434C161.802 104.056 184.194 119.003 206.34 118.882 224.875 118.882 244.41 109.16 247.66 84.5208 240.062 84.5208 233.229 84.5208 225.753 84.5208 223.385 93.8472 215.788 98.5868 206.34 98.5868 193.156 98.4653 184.681 87.2535 184.681 74.434 184.681 60.0035 193.278 50.191 206.34 50.191 215.667 50.191 222.26 54.1701 225.389 63.0104 232.986 63.0104 239.698 63.0104 247.295 63.0104 243.924 39.7396 224.389 29.8958 206.34 29.8958 184.194 29.8958 161.802 44.8438 161.681 74.434ZM348.688 74.5556C348.688 14.3403 259.337 14.3403 259.337 74.5556 259.337 134.924 348.688 134.924 348.688 74.5556ZM282.243 74.5556C282.243 43.2014 325.931 43.2014 325.931 74.5556 325.931 106.181 282.243 106.181 282.243 74.5556ZM387.778 30.8993C380.184 30.8993 372.83 30.8993 365.358 30.8993L365.358 118C383.038 118 401.451 118 419.375 118 419.375 110.528 419.375 105.424 419.375 97.9792L387.778 97.9792C387.778 60.8854 387.778 75.9514 387.778 30.8993ZM490.052 118 511.833 118 511.833 114.781 472.521 29.7743 462.92 29.7743 423.729 114.781 423.729 118 445.51 118 450.615 107.062 484.948 107.062ZM477.625 87.8924 457.938 87.8924 467.66 64.9861ZM538.698 91.3576C531.135 91.3576 524.663 91.3576 517.191 91.3576 516.674 129.698 587.611 128.694 587.611 92.1146 587.611 70.3333 570.691 68.1146 553.403 66.2326 545.566 65.3507 539.094 63.9826 539.58 57.3889 540.34 47.059 563.733 46.0868 563.733 57.6319 571.326 57.6319 577.038 57.6319 584.879 57.6319 585.365 20.0521 517.677 20.0521 518.434 57.6319 518.677 76.559 531.135 83.0312 550.031 84.3993 558.75 84.8854 565.951 85.8889 565.951 91.9931 565.951 102.201 538.698 102.444 538.698 91.3576ZM650.212 30.8993 628.795 30.8993 628.795 34.2396 666.132 119.003 675.58 119.003 712.556 34.2396 712.556 30.8993 691.135 30.8993 671.236 80.1771 670.629 80.1771ZM780.861 118 802.642 118 802.642 114.781 763.33 29.7743 753.729 29.7743 714.538 114.781 714.538 118 736.323 118 741.427 107.062 775.757 107.062ZM768.434 87.8924 748.747 87.8924 758.469 64.9861ZM808.729 74.434C808.882 104.177 831.271 119.003 853.42 119.003 869.462 119.003 886.017 112.014 892.247 93.8472 895.222 85.4028 895.222 77.0451 894.736 68.3576L853.542 68.3576 853.542 87.6493 872.073 87.6493C868.094 95.9722 862.382 98.3438 853.42 98.3438 840.233 98.3438 831.757 88.8958 831.757 74.434 831.757 61.1285 839.354 50.191 853.42 50.191 862.26 50.191 867.972 53.1667 871.587 60.6424L893.493 60.6424C889.267 38.9792 870.948 29.8958 853.42 29.7743 831.271 29.7743 808.882 44.691 808.729 74.434ZM979.34 118.122 987.302 118.122 987.302 30.8993C979.705 30.8993 972.142 30.8993 964.545 30.8993L964.545 73.5833 920.493 30.5347 912.413 30.5347 912.413 118C919.976 118 927.695 118 935.41 118L935.41 75.1944ZM1093.44 74.5556C1093.44 14.3403 1004.1 14.3403 1004.1 74.5556 1004.1 134.924 1093.44 134.924 1093.44 74.5556ZM1027 74.5556C1027 43.2014 1070.69 43.2014 1070.69 74.5556 1070.69 106.181 1027 106.181 1027 74.5556ZM1143.99 99.2257C1137.52 99.2257 1130.65 95.7292 1130.65 88.6215L1130.65 30.8993C1123.69 30.8993 1116.34 30.8993 1109.39 30.8993L1109.39 89.0174C1109.39 108.156 1126.19 119.247 1143.99 119.247 1161.89 119.247 1178.68 108.156 1178.68 89.0174L1178.68 30.8993C1171.73 30.8993 1164.25 30.8993 1157.18 30.8993L1157.18 88.6215C1157.18 95.7292 1150.46 99.2257 1143.99 99.2257ZM1231.22 90.6285 1247.75 118 1271.14 118 1271.14 114.628 1242.92 71.8194 1268.04 34.2396 1268.04 30.8993 1245.65 30.8993 1231.07 53.5312 1230.46 53.5312 1216.27 30.8993 1193.49 30.8993 1193.49 34.2396 1218.64 71.8194 1190.51 114.628 1190.51 118 1213.78 118 1230.46 90.6285Z" stroke="#FFFFFF" stroke-width="3" fill="none" transform="matrix(1 0 0 1.0025 -35 272.548)"/></g></svg>