<svg width="661" height="262" xmlns="http://www.w3.org/2000/svg" xmlns:xlink="http://www.w3.org/1999/xlink" xml:space="preserve" overflow="hidden"><defs><clipPath id="clip0"><rect x="0" y="216" width="661" height="262"/></clipPath></defs><g clip-path="url(#clip0)" transform="matrix(1 0 0 1 0 -216)"><path d="M77.8609 99.2554 85.8068 99.2554 85.8068 12.2081C78.2248 12.2081 70.6774 12.2081 63.0955 12.2081L63.0955 54.8065 19.1317 11.8443 11.068 11.8443 11.068 99.1342C18.6154 99.1342 26.3186 99.1342 34.0185 99.1342L34.0185 56.4144ZM133.766 79.6386 133.766 31.5824 143.923 31.5824C143.923 24.1217 143.923 19.5129 143.923 12.2081 129.764 12.2081 115.757 12.2081 101.598 12.2081 101.598 19.5129 101.598 24.1217 101.598 31.5824L111.782 31.5824 111.782 79.6386 100.718 79.6386C100.718 86.9746 100.718 91.5556 100.718 99.1342 115.483 99.1342 130.037 99.1342 144.803 99.1342 144.803 91.5556 144.803 86.9746 144.803 79.6386ZM154.131 55.6555C154.253 85.2177 176.6 100.136 198.701 100.014 217.199 100.014 236.695 90.3116 239.938 65.7221 232.356 65.7221 225.536 65.7221 218.076 65.7221 215.712 75.0298 208.13 79.7599 198.701 79.7599 185.544 79.6386 177.085 68.4493 177.085 55.6555 177.085 41.2539 185.665 31.4611 198.701 31.4611 208.009 31.4611 214.59 35.4323 217.712 44.2548 225.294 44.2548 231.992 44.2548 239.574 44.2548 236.209 21.0307 216.714 11.2066 198.701 11.2066 176.6 11.2066 154.253 26.1246 154.131 55.6555ZM340.763 55.7768C340.763-4.31772 251.592-4.31772 251.592 55.7768 251.592 116.024 340.763 116.024 340.763 55.7768ZM274.452 55.7768C274.452 24.4855 318.052 24.4855 318.052 55.7768 318.052 87.3384 274.452 87.3384 274.452 55.7768ZM379.775 12.2081C372.197 12.2081 364.857 12.2081 357.4 12.2081L357.4 99.1342C375.045 99.1342 393.421 99.1342 411.309 99.1342 411.309 91.6769 411.309 86.583 411.309 79.1535L379.775 79.1535C379.775 42.1341 379.775 57.1699 379.775 12.2081ZM481.844 99.1342 503.582 99.1342 503.582 95.9219 464.348 11.0854 454.767 11.0854 415.654 95.9219 415.654 99.1342 437.392 99.1342 442.486 88.2186 476.75 88.2186ZM469.442 69.0869 449.794 69.0869 459.497 46.2266ZM530.393 72.5452C522.845 72.5452 516.386 72.5452 508.929 72.5452 508.413 110.809 579.208 109.807 579.208 73.3006 579.208 51.5631 562.322 49.3488 545.068 47.4706 537.247 46.5904 530.788 45.2251 531.273 38.6446 532.032 28.3354 555.377 27.3652 555.377 38.8871 562.956 38.8871 568.656 38.8871 576.481 38.8871 576.966 1.38263 509.414 1.38263 510.169 38.8871 510.412 57.7763 522.845 64.2355 541.703 65.6008 550.405 66.086 557.592 67.0874 557.592 73.1794 557.592 83.3672 530.393 83.6098 530.393 72.5452Z" stroke="#FFFFFF" stroke-width="3" fill="none" transform="matrix(1.00167 0 0 1 5.529e-06 223.8)"/><path d="M23.1029 148.601 1.72916 148.601 1.72916 151.934 38.9911 236.528 48.4201 236.528 85.3216 151.934 85.3216 148.601 63.9444 148.601 44.085 197.78 43.4786 197.78ZM153.49 235.527 175.228 235.527 175.228 232.314 135.994 147.478 126.413 147.478 87.3003 232.314 87.3003 235.527 109.041 235.527 114.135 224.611 148.396 224.611ZM141.088 205.48 121.44 205.48 131.143 182.619ZM181.302 192.048C181.455 221.732 203.799 236.528 225.904 236.528 241.913 236.528 258.436 229.553 264.652 211.422 267.622 202.995 267.622 194.654 267.137 185.984L226.025 185.984 226.025 205.237 244.519 205.237C240.548 213.543 234.848 215.91 225.904 215.91 212.743 215.91 204.284 206.481 204.284 192.048 204.284 178.769 211.866 167.854 225.904 167.854 234.726 167.854 240.427 170.823 244.034 178.284L265.896 178.284C261.679 156.664 243.396 147.599 225.904 147.478 203.799 147.478 181.455 162.365 181.302 192.048ZM351.571 235.648 359.517 235.648 359.517 148.601C351.935 148.601 344.384 148.601 336.806 148.601L336.806 191.199 292.842 148.237 284.779 148.237 284.779 235.527C292.326 235.527 300.029 235.527 307.729 235.527L307.729 192.807ZM465.447 192.169C465.447 132.075 376.279 132.075 376.279 192.169 376.279 252.416 465.447 252.416 465.447 192.169ZM399.139 192.169C399.139 160.878 442.739 160.878 442.739 192.169 442.739 223.731 399.139 223.731 399.139 192.169ZM515.891 216.79C509.431 216.79 502.581 213.301 502.581 206.207L502.581 148.601C495.636 148.601 488.3 148.601 481.356 148.601L481.356 206.602C481.356 225.703 498.124 236.771 515.891 236.771 533.751 236.771 550.516 225.703 550.516 206.602L550.516 148.601C543.575 148.601 536.114 148.601 529.052 148.601L529.052 206.207C529.052 213.301 522.35 216.79 515.891 216.79ZM602.948 208.21 619.443 235.527 642.788 235.527 642.788 232.162 614.619 189.439 639.694 151.934 639.694 148.601 617.35 148.601 602.796 171.187 602.189 171.187 588.03 148.601 565.291 148.601 565.291 151.934 590.394 189.439 562.318 232.162 562.318 235.527 585.542 235.527 602.189 208.21Z" stroke="#FFFFFF" stroke-width="3" fill="none" transform="matrix(1.00167 0 0 1 5.529e-06 223.8)"/></g></svg>