<svg width="415" height="107" xmlns="http://www.w3.org/2000/svg" xmlns:xlink="http://www.w3.org/1999/xlink" xml:space="preserve" overflow="hidden"><defs><clipPath id="clip0"><rect x="434" y="298" width="415" height="107"/></clipPath></defs><g clip-path="url(#clip0)" transform="translate(-434 -298)"><path d="M470.568 63.837 470.568 49.2311 481.087 49.2311C508.425 49.2311 508.425 6.79094 481.087 6.71115 472.678 6.71115 464.192 6.71115 455.962 6.71115 455.962 25.7993 455.962 44.8286 455.962 63.837 460.764 63.837 465.666 63.837 470.568 63.837ZM481.007 36.0824 470.568 36.0824C470.568 31.4405 470.568 24.4255 470.568 19.7627 473.913 19.7627 477.58 19.6829 481.007 19.7627 489.497 19.8425 488.997 36.0824 481.007 36.0824ZM549.644 43.5935C564.091 33.81 560.007 6.79094 537.571 6.71115 529.241 6.71115 520.752 6.71115 512.502 6.71115 512.502 25.7993 512.502 44.8286 512.502 63.837 517.244 63.837 522.226 63.837 527.129 63.837L527.129 47.0212 534.719 47.0212 544.503 63.837 560.823 63.837 560.823 61.7276ZM537.571 34.0494 527.129 34.0494C527.129 29.4872 527.129 24.4255 527.129 19.7627 530.556 19.7627 534.143 19.6829 537.571 19.7627 545.898 19.8425 545.481 34.0494 537.571 34.0494ZM624.727 35.3434C624.727-4.14783 566.124-4.14783 566.124 35.3434 566.124 74.9388 624.727 74.9388 624.727 35.3434ZM581.149 35.3434C581.149 14.7808 609.802 14.7808 609.802 35.3434 609.802 56.0865 581.149 56.0865 581.149 35.3434ZM675.654 6.71115 652.399 6.71115C652.399 10.9541 652.399 15.2006 652.399 19.6829L660.729 19.6829 660.729 44.5718C660.729 49.1548 657.877 51.4237 653.634 51.4237 649.391 51.4237 646.043 49.075 646.043 44.5718L646.043 37.3973C641.46 37.3973 636.738 37.3973 632.235 37.3973L632.235 44.8286C632.235 57.3042 641.876 64.4961 653.634 64.4961 665.371 64.4961 675.654 57.3042 675.654 44.8286ZM725.438 6.71115C712.068 6.71115 703.002 6.71115 689.791 6.71115 689.791 25.6398 689.791 44.7488 689.791 63.837 703.002 63.837 712.803 63.837 726.174 63.837 726.174 59.5142 726.174 55.1116 726.174 50.8652 717.608 50.8652 712.723 50.8652 704.317 50.8652 704.317 47.441 704.317 44.1729 704.317 40.825L723.724 40.825C723.724 36.4987 723.724 32.176 723.724 27.8532L704.317 27.8532 704.317 19.7627C712.723 19.7627 716.97 19.7627 725.438 19.7627 725.438 15.3602 725.438 10.9541 725.438 6.71115ZM747.149 19.7627 747.149 63.837C751.972 63.837 756.794 63.837 761.596 63.837L761.596 19.7627 775.563 19.7627C775.563 15.3602 775.563 11.0339 775.563 6.71115L733.119 6.71115C733.119 11.0339 733.119 15.3602 733.119 19.7627ZM794.731 46.362C789.77 46.362 785.523 46.362 780.621 46.362 780.285 71.5111 826.812 71.1121 826.812 47.101 826.812 32.8351 815.714 31.1213 804.376 29.8862 799.234 29.3068 794.988 28.4117 795.307 24.0855 795.807 17.3099 811.148 16.675 811.148 24.2451 816.13 24.2451 819.877 24.2451 825.018 24.2451 825.337-0.40443 780.94-0.40443 781.44 24.2451 781.6 36.6583 789.77 40.9048 802.162 41.7999 807.88 42.119 812.605 43.0349 812.605 47.0212 812.605 53.717 794.731 53.6372 794.731 46.362Z" stroke="#FFFFFF" stroke-width="3.06076" fill="none" transform="matrix(1 0 0 1.00294 0.404363 315.601)"/></g></svg>