<svg width="689" height="207" xmlns="http://www.w3.org/2000/svg" xmlns:xlink="http://www.w3.org/1999/xlink" xml:space="preserve" overflow="hidden"><defs><clipPath id="clip0"><rect x="284" y="241" width="689" height="207"/></clipPath></defs><g clip-path="url(#clip0)" transform="translate(-284 -241)"><path d="M305.63 35.3125C305.71 54.7667 320.415 64.5842 334.961 64.5043 347.133 64.5043 359.963 58.1191 362.096 41.9373 357.107 41.9373 352.619 41.9373 347.71 41.9373 346.154 48.0619 341.165 51.1746 334.961 51.1746 326.3 51.0947 320.735 43.7334 320.735 35.3125 320.735 25.8355 326.38 19.3912 334.961 19.3912 341.085 19.3912 345.417 22.0037 347.47 27.8087 352.459 27.8087 356.871 27.8087 361.856 27.8087 359.643 12.5267 346.814 6.0616 334.961 6.0616 320.415 6.0616 305.71 15.8791 305.63 35.3125ZM428.449 35.3924C428.449-4.15535 369.766-4.15535 369.766 35.3924 369.766 75.0373 428.449 75.0373 428.449 35.3924ZM384.812 35.3924C384.812 14.8021 413.504 14.8021 413.504 35.3924 413.504 56.1632 384.812 56.1632 384.812 35.3924ZM467.19 31.4008 444.804 6.55838 439.395 6.55838 439.395 63.9241C444.384 63.9241 449.372 63.9241 454.361 63.9241L454.361 38.4251 466.45 51.1746 468.087 51.1746 480.259 38.4251 480.259 63.9241C485.248 63.9241 490.237 63.9241 495.225 63.9241L495.225 6.55838 489.997 6.55838ZM524.403 63.9241 524.403 49.2987 534.94 49.2987C562.315 49.2987 562.315 6.79808 534.94 6.71818 526.519 6.71818 518.022 6.71818 509.778 6.71818 509.778 25.8355 509.778 44.8902 509.778 63.9241 514.589 63.9241 519.498 63.9241 524.403 63.9241ZM534.86 36.1288 524.403 36.1288C524.403 31.4807 524.403 24.4563 524.403 19.7873 527.756 19.7873 531.428 19.7074 534.86 19.7873 543.361 19.8672 542.86 36.1288 534.86 36.1288ZM602.192 6.71818C588.804 6.71818 579.726 6.71818 566.497 6.71818 566.497 25.6757 566.497 44.8103 566.497 63.9241 579.726 63.9241 589.544 63.9241 602.929 63.9241 602.929 59.5955 602.929 55.1836 602.929 50.9349 594.352 50.9349 589.464 50.9349 581.043 50.9349 581.043 47.5026 581.043 44.2301 581.043 40.8778L600.476 40.8778C600.476 36.5492 600.476 32.2206 600.476 27.8886L581.043 27.8886 581.043 19.7873C589.464 19.7873 593.712 19.7873 602.192 19.7873 602.192 15.3788 602.192 10.9703 602.192 6.71818ZM587.987 2.94892 596.405-6.60798 596.405-7.82734 583.975-11.9961 577.77 1.65313 577.77 2.94892ZM623.933 19.7873 623.933 63.9241C628.761 63.9241 633.59 63.9241 638.398 63.9241L638.398 19.7873 652.384 19.7873C652.384 15.3788 652.384 11.0502 652.384 6.71818L609.884 6.71818C609.884 11.0502 609.884 15.3788 609.884 19.7873ZM697.157 6.71818C683.768 6.71818 674.691 6.71818 661.462 6.71818 661.462 25.6757 661.462 44.8103 661.462 63.9241 674.691 63.9241 684.508 63.9241 697.897 63.9241 697.897 59.5955 697.897 55.1836 697.897 50.9349 689.316 50.9349 684.428 50.9349 676.007 50.9349 676.007 47.5026 676.007 44.2301 676.007 40.8778L695.441 40.8778C695.441 36.5492 695.441 32.2206 695.441 27.8886L676.007 27.8886 676.007 19.7873C684.428 19.7873 688.677 19.7873 697.157 19.7873 697.157 15.3788 697.157 10.9703 697.157 6.71818ZM754.453 64.004 759.682 64.004 759.682 6.71818C754.693 6.71818 749.725 6.71818 744.737 6.71818L744.737 34.7531 715.805 6.47848 710.497 6.47848 710.497 63.9241C715.465 63.9241 720.533 63.9241 725.602 63.9241L725.602 35.8092ZM770.809 35.3125C770.889 54.7667 785.594 64.5842 800.139 64.5043 812.312 64.5043 825.142 58.1191 827.278 41.9373 822.289 41.9373 817.798 41.9373 812.892 41.9373 811.336 48.0619 806.347 51.1746 800.139 51.1746 791.482 51.0947 785.914 43.7334 785.914 35.3125 785.914 25.8355 791.562 19.3912 800.139 19.3912 806.268 19.3912 810.596 22.0037 812.653 27.8087 817.641 27.8087 822.05 27.8087 827.038 27.8087 824.822 12.5267 811.993 6.0616 800.139 6.0616 785.594 6.0616 770.889 15.8791 770.809 35.3125ZM874.173 6.71818C860.785 6.71818 851.707 6.71818 838.478 6.71818 838.478 25.6757 838.478 44.8103 838.478 63.9241 851.707 63.9241 861.525 63.9241 874.913 63.9241 874.913 59.5955 874.913 55.1836 874.913 50.9349 866.333 50.9349 861.445 50.9349 853.024 50.9349 853.024 47.5026 853.024 44.2301 853.024 40.8778L872.457 40.8778C872.457 36.5492 872.457 32.2206 872.457 27.8886L853.024 27.8886 853.024 19.7873C861.445 19.7873 865.693 19.7873 874.173 19.7873 874.173 15.3788 874.173 10.9703 874.173 6.71818ZM897.63 46.4257C892.662 46.4257 888.41 46.4257 883.504 46.4257 883.164 71.6051 929.753 70.9485 929.753 46.926 929.753 32.6167 918.64 31.1611 907.287 29.9243 902.139 29.3476 897.89 28.4479 898.21 24.1193 898.706 17.3346 914.072 16.6954 914.072 24.2791 919.057 24.2791 922.809 24.2791 927.957 24.2791 928.277-0.403463 883.82-0.403463 884.321 24.2791 884.481 36.709 892.662 40.9577 905.071 41.8574 910.799 42.177 915.527 42.8336 915.527 46.846 915.527 53.5473 897.63 53.7071 897.63 46.4257ZM952.484 57.5598C952.484 52.9707 948.871 49.9587 944.302 49.9587 939.894 49.9587 936.302 52.9707 936.302 57.5598 936.302 61.3117 938.754 63.9241 942.086 64.744L940.054 71.2056 948.311 71.2056 951.903 60.5717C952.223 59.4357 952.484 58.6958 952.484 57.5598Z" stroke="#FFFFFF" stroke-width="3.06486" fill="none" transform="matrix(1 0 0 1.00096 -0.226421 270.793)"/><path d="M551.073 124.712C551.073 85.164 492.391 85.164 492.391 124.712 492.391 164.357 551.073 164.357 551.073 124.712ZM507.436 124.712C507.436 104.118 536.128 104.118 536.128 124.712 536.128 145.483 507.436 145.483 507.436 124.712ZM584.267 140.911C580.018 140.911 575.509 138.618 575.509 133.949L575.509 96.0375C570.941 96.0375 566.112 96.0375 561.543 96.0375L561.543 134.21C561.543 146.778 572.577 154.06 584.267 154.06 596.019 154.06 607.056 146.778 607.056 134.21L607.056 96.0375C602.484 96.0375 597.576 96.0375 592.927 96.0375L592.927 133.949C592.927 138.618 588.519 140.911 584.267 140.911ZM629.526 109.107 629.526 153.243C634.354 153.243 639.183 153.243 643.991 153.243L643.991 109.107 657.977 109.107C657.977 104.698 657.977 100.37 657.977 96.0375L615.48 96.0375C615.48 100.37 615.48 104.698 615.48 109.107ZM684.057 140.414 684.057 108.787 690.741 108.787C690.741 103.878 690.741 100.845 690.741 96.0375 681.423 96.0375 672.203 96.0375 662.886 96.0375 662.886 100.845 662.886 103.878 662.886 108.787L669.591 108.787 669.591 140.414 662.306 140.414C662.306 145.243 662.306 148.255 662.306 153.243 672.023 153.243 681.601 153.243 691.317 153.243 691.317 148.255 691.317 145.243 691.317 140.414ZM715.517 96.0375C710.528 96.0375 705.699 96.0375 700.791 96.0375L700.791 153.243C712.404 153.243 724.494 153.243 736.267 153.243 736.267 148.335 736.267 144.982 736.267 140.094L715.517 140.094C715.517 115.731 715.517 125.629 715.517 96.0375ZM756.444 135.745C751.476 135.745 747.227 135.745 742.319 135.745 741.978 160.924 788.568 160.268 788.568 136.242 788.568 121.936 777.454 120.48 766.101 119.244 760.953 118.664 756.704 117.767 757.024 113.439 757.524 106.654 772.886 106.015 772.886 113.598 777.875 113.598 781.627 113.598 786.775 113.598 787.091 88.9159 742.638 88.9159 743.135 113.598 743.295 126.028 751.476 130.277 763.888 131.177 769.614 131.493 774.342 132.153 774.342 136.162 774.342 142.867 756.444 143.026 756.444 135.745Z" stroke="#FFFFFF" stroke-width="3.06486" fill="none" transform="matrix(1 0 0 1.00096 -0.226421 270.793)"/></g></svg>