<svg width="1015" height="118" xmlns="http://www.w3.org/2000/svg" xmlns:xlink="http://www.w3.org/1999/xlink" xml:space="preserve" overflow="hidden"><defs><clipPath id="clip0"><rect x="133" y="289" width="1015" height="118"/></clipPath></defs><g clip-path="url(#clip0)" transform="translate(-133 -289)"><path d="M153.875 35.298C153.955 54.7451 168.655 64.559 183.195 64.4791 195.364 64.4791 208.188 58.0963 210.324 41.9204 205.337 41.9204 200.847 41.9204 195.944 41.9204 194.388 48.0428 189.401 51.1543 183.195 51.1543 174.541 51.0745 168.975 43.7158 168.975 35.298 168.975 25.8245 174.621 19.3826 183.195 19.3826 189.321 19.3826 193.648 21.9941 195.704 27.8004 200.687 27.8004 205.098 27.8004 210.084 27.8004 207.869 12.5206 195.044 6.05787 183.195 6.05787 168.655 6.05787 153.955 15.8717 153.875 35.298ZM276.649 35.3779C276.649-4.15187 217.988-4.15187 217.988 35.3779 217.988 75.0118 276.649 75.0118 276.649 35.3779ZM233.029 35.3779C233.029 14.7952 261.71 14.7952 261.71 35.3779 261.71 56.1411 233.029 56.1411 233.029 35.3779ZM315.377 31.3912 292.999 6.55794 287.595 6.55794 287.595 63.8991C292.578 63.8991 297.565 63.8991 302.552 63.8991L302.552 38.4095 314.64 51.1543 316.276 51.1543 328.441 38.4095 328.441 63.8991C333.428 63.8991 338.415 63.8991 343.401 63.8991L343.401 6.55794 338.175 6.55794ZM372.572 63.8991 372.572 49.2791 383.101 49.2791C410.466 49.2791 410.466 6.79755 383.101 6.71768 374.687 6.71768 366.189 6.71768 357.952 6.71768 357.952 25.8245 357.952 44.8722 357.952 63.8991 362.758 63.8991 367.665 63.8991 372.572 63.8991ZM383.021 36.1175 372.572 36.1175C372.572 31.4711 372.572 24.4493 372.572 19.782 375.923 19.782 379.59 19.7021 383.021 19.782 391.519 19.8618 391.019 36.1175 383.021 36.1175ZM450.329 6.71768C436.945 6.71768 427.871 6.71768 414.647 6.71768 414.647 25.6647 414.647 44.7924 414.647 63.8991 427.871 63.8991 437.685 63.8991 451.069 63.8991 451.069 59.5722 451.069 55.1653 451.069 50.9147 442.491 50.9147 437.605 50.9147 429.187 50.9147 429.187 47.4872 429.187 44.2159 429.187 40.8647L448.614 40.8647C448.614 36.5343 448.614 32.2073 448.614 27.8803L429.187 27.8803 429.187 19.782C437.605 19.782 441.852 19.782 450.329 19.782 450.329 15.3751 450.329 10.9648 450.329 6.71768ZM436.129 2.94633 444.547-6.60706 444.547-7.82251 432.118-11.9932 425.916 1.65101 425.916 2.94633ZM472.061 19.782 472.061 63.8991C476.888 63.8991 481.715 63.8991 486.522 63.8991L486.522 19.782 500.503 19.782C500.503 15.3751 500.503 11.0447 500.503 6.71768L458.021 6.71768C458.021 11.0447 458.021 15.3751 458.021 19.782ZM545.259 6.71768C531.875 6.71768 522.801 6.71768 509.577 6.71768 509.577 25.6647 509.577 44.7924 509.577 63.8991 522.801 63.8991 532.615 63.8991 545.999 63.8991 545.999 59.5722 545.999 55.1653 545.999 50.9147 537.421 50.9147 532.535 50.9147 524.117 50.9147 524.117 47.4872 524.117 44.2159 524.117 40.8647L543.543 40.8647C543.543 36.5343 543.543 32.2073 543.543 27.8803L524.117 27.8803 524.117 19.782C532.535 19.782 536.782 19.782 545.259 19.782 545.259 15.3751 545.259 10.9648 545.259 6.71768ZM602.534 63.979 607.761 63.979 607.761 6.71768C602.774 6.71768 597.808 6.71768 592.821 6.71768L592.821 34.7389 563.9 6.47807 558.594 6.47807 558.594 63.8991C563.56 63.8991 568.627 63.8991 573.693 63.8991L573.693 35.7981ZM618.887 35.298C618.967 54.7451 633.667 64.559 648.207 64.4791 660.372 64.4791 673.197 58.0963 675.332 41.9204 670.346 41.9204 665.859 41.9204 660.952 41.9204 659.396 48.0428 654.409 51.1543 648.207 51.1543 639.55 51.0745 633.986 43.7158 633.986 35.298 633.986 25.8245 639.629 19.3826 648.207 19.3826 654.329 19.3826 658.656 21.9941 660.712 27.8004 665.699 27.8004 670.106 27.8004 675.093 27.8004 672.877 12.5206 660.052 6.05787 648.207 6.05787 633.667 6.05787 618.967 15.8717 618.887 35.298ZM722.21 6.71768C708.83 6.71768 699.752 6.71768 686.528 6.71768 686.528 25.6647 686.528 44.7924 686.528 63.8991 699.752 63.8991 709.566 63.8991 722.95 63.8991 722.95 59.5722 722.95 55.1653 722.95 50.9147 714.372 50.9147 709.486 50.9147 701.068 50.9147 701.068 47.4872 701.068 44.2159 701.068 40.8647L720.495 40.8647C720.495 36.5343 720.495 32.2073 720.495 27.8803L701.068 27.8803 701.068 19.782C709.486 19.782 713.733 19.782 722.21 19.782 722.21 15.3751 722.21 10.9648 722.21 6.71768ZM745.658 46.4072C740.692 46.4072 736.445 46.4072 731.538 46.4072 731.198 71.5808 777.77 70.9209 777.77 46.9072 777.77 32.6067 766.661 31.1516 755.312 29.9153 750.166 29.3354 745.918 28.4394 746.238 24.109 746.734 17.3268 762.094 16.6913 762.094 24.2687 767.081 24.2687 770.832 24.2687 775.975 24.2687 776.294-0.404824 731.857-0.404824 732.354 24.2687 732.514 36.694 740.692 40.9446 753.1 41.8406 758.823 42.16 763.549 42.8199 763.549 46.8274 763.549 53.5297 745.658 53.6894 745.658 46.4072ZM800.492 57.5372C800.492 52.9497 796.88 49.9389 792.314 49.9389 787.907 49.9389 784.316 52.9497 784.316 57.5372 784.316 61.2877 786.771 63.8991 790.102 64.7187L788.067 71.1814 796.325 71.1814 799.912 60.5515C800.231 59.4124 800.492 58.6762 800.492 57.5372ZM889.282 35.3779C889.282-4.15187 830.621-4.15187 830.621 35.3779 830.621 75.0118 889.282 75.0118 889.282 35.3779ZM845.661 35.3779C845.661 14.7952 874.342 14.7952 874.342 35.3779 874.342 56.1411 845.661 56.1411 845.661 35.3779ZM922.464 51.5745C918.216 51.5745 913.709 49.2791 913.709 44.6152L913.709 6.71768C909.142 6.71768 904.315 6.71768 899.749 6.71768L899.749 44.8722C899.749 57.4399 910.778 64.7187 922.464 64.7187 934.212 64.7187 945.244 57.4399 945.244 44.8722L945.244 6.71768C940.674 6.71768 935.767 6.71768 931.121 6.71768L931.121 44.6152C931.121 49.2791 926.714 51.5745 922.464 51.5745ZM967.706 19.782 967.706 63.8991C972.533 63.8991 977.36 63.8991 982.166 63.8991L982.166 19.782 996.151 19.782C996.151 15.3751 996.151 11.0447 996.151 6.71768L953.666 6.71768C953.666 11.0447 953.666 15.3751 953.666 19.782ZM1022.22 51.0745 1022.22 19.4625 1028.9 19.4625C1028.9 14.5556 1028.9 11.5239 1028.9 6.71768 1019.58 6.71768 1010.37 6.71768 1001.05 6.71768 1001.05 11.5239 1001.05 14.5556 1001.05 19.4625L1007.76 19.4625 1007.76 51.0745 1000.47 51.0745C1000.47 55.9015 1000.47 58.9158 1000.47 63.8991 1010.19 63.8991 1019.76 63.8991 1029.47 63.8991 1029.47 58.9158 1029.47 55.9015 1029.47 51.0745ZM1053.67 6.71768C1048.68 6.71768 1043.85 6.71768 1038.94 6.71768L1038.94 63.8991C1050.55 63.8991 1062.64 63.8991 1074.41 63.8991 1074.41 58.9957 1074.41 55.6445 1074.41 50.7584L1053.67 50.7584C1053.67 26.4044 1053.67 36.2947 1053.67 6.71768ZM1094.58 46.4072C1089.61 46.4072 1085.36 46.4072 1080.46 46.4072 1080.12 71.5808 1126.69 70.9209 1126.69 46.9072 1126.69 32.6067 1115.58 31.1516 1104.23 29.9153 1099.09 29.3354 1094.84 28.4394 1095.16 24.109 1095.66 17.3268 1111.01 16.6913 1111.01 24.2687 1116 24.2687 1119.75 24.2687 1124.9 24.2687 1125.22-0.404824 1080.78-0.404824 1081.28 24.2687 1081.44 36.694 1089.61 40.9446 1102.02 41.8406 1107.74 42.16 1112.47 42.8199 1112.47 46.8274 1112.47 53.5297 1094.58 53.6894 1094.58 46.4072Z" stroke="#FFFFFF" stroke-width="3.06374" fill="none" transform="matrix(1 0 0 1.00365 -0.240667 315.484)"/></g></svg>