<svg width="162" height="163" xmlns="http://www.w3.org/2000/svg" xmlns:xlink="http://www.w3.org/1999/xlink" xml:space="preserve" overflow="hidden"><defs><clipPath id="clip0"><rect x="357" y="346" width="162" height="163"/></clipPath></defs><g clip-path="url(#clip0)" transform="translate(-357 -346)"><path d="M103.011 77.8192 103.011 77.8192 114.811 82.7025C115.232 74.9587 121.852 69.0228 129.596 69.4443 134.99 69.738 139.738 73.1003 141.806 78.0916 143.806 83.089 142.861 88.784 139.354 92.8674L153.563 98.7568 153.815 98.8616 174.753 48.2047 123.949 27.2461 116.048 46.6747 116.048 46.6747 115.44 48.1209 115.272 47.4502C112.965 41.9092 106.612 39.2761 101.062 41.5608 98.6289 42.6115 96.6462 44.49 95.4663 46.8634 93.5037 52.5289 96.5054 58.7129 102.171 60.6755 104.684 61.5461 107.429 61.4639 109.886 60.4445L110.556 60.172 110.158 61.1361 110.158 61.1361Z" fill="#FFFFFF" transform="matrix(1 0 0 1.0041 338.26 327.884)"/><path d="M97.7088 152.159C103.203 150.341 106.184 144.413 104.366 138.918 102.548 133.424 96.6194 130.444 91.1249 132.262 89.0374 132.952 87.2199 134.282 85.9301 136.063L85.9301 117.2 73.2083 117.2C73.3003 117.895 73.3493 118.595 73.355 119.296 73.355 128.556 65.8483 136.063 56.5881 136.063 47.328 136.063 39.8213 128.556 39.8213 119.296 39.8269 118.595 39.876 117.895 39.968 117.2L27.2461 117.2 27.2461 171.693 85.9301 171.693 85.9301 148.638C86.1638 148.96 86.4157 149.268 86.6846 149.56 86.7976 149.775 86.9309 149.979 87.0828 150.168 89.5601 152.54 93.0929 153.454 96.4094 152.578 96.7657 152.578 97.101 152.369 97.4364 152.264Z" fill="#FFFFFF" transform="matrix(1 0 0 1.0041 338.26 327.884)"/><path d="M123.656 117.158C123.981 116.922 124.289 116.663 124.578 116.383 124.807 116.296 125.014 116.16 125.186 115.985 127.762 113.224 128.615 109.272 127.407 105.694L127.407 105.38C125.46 99.9296 119.463 97.0904 114.013 99.0378 108.563 100.985 105.723 106.982 107.671 112.432 108.338 114.298 109.52 115.937 111.08 117.158L92.2177 117.158 92.2177 125.751C92.9131 125.667 93.6131 125.625 94.3136 125.626 103.574 125.626 111.08 133.132 111.08 142.393 111.08 151.653 103.574 159.159 94.3136 159.159 93.6127 159.153 92.9127 159.104 92.2177 159.013L92.2177 171.651 146.71 171.651 146.71 117.158Z" fill="#FFFFFF" transform="matrix(1 0 0 1.0041 338.26 327.884)"/><path d="M85.9301 73.9418 85.9301 52.1868 27.2461 52.1868 27.2461 110.871 50.3006 110.871C47.6619 112.85 46.1088 115.956 46.1088 119.254 46.1088 125.042 50.8006 129.734 56.5881 129.734 62.3756 129.734 67.0674 125.042 67.0674 119.254 67.0674 115.956 65.5144 112.85 62.8757 110.871L85.9301 110.871 85.9301 89.3254C81.4226 93.5551 74.4044 93.5551 69.8968 89.3254 65.6487 85.1765 65.5685 78.3693 69.7174 74.1212 69.7765 74.0607 69.8362 74.0009 69.8968 73.9418 74.4044 69.7122 81.4226 69.7122 85.9301 73.9418Z" fill="#FFFFFF" transform="matrix(1 0 0 1.0041 338.26 327.884)"/></g></svg>