<svg width="146" height="146" xmlns="http://www.w3.org/2000/svg" xmlns:xlink="http://www.w3.org/1999/xlink" xml:space="preserve" overflow="hidden"><defs><clipPath id="clip0"><rect x="538" y="381" width="146" height="146"/></clipPath></defs><g clip-path="url(#clip0)" transform="translate(-538 -381)"><path d="M563.094 506.925C562.029 507.99 560.66 508.294 559.292 507.685 557.923 507.077 557.162 505.86 557.162 504.492 557.162 503.123 558.075 501.754 559.292 501.298 560.66 500.69 562.029 500.994 563.094 502.058 564.463 503.275 564.463 505.556 563.094 506.925ZM670.465 406.702 658.146 419.021 648.412 416.435 645.979 406.854 658.298 394.535C650.998 391.798 642.785 393.471 637.006 398.642 631.227 403.965 628.946 411.873 630.923 419.477L553.36 497.04C550.623 499.625 549.558 503.579 550.471 507.229 551.383 510.879 554.273 513.769 557.923 514.681 561.573 515.594 565.375 514.529 568.112 511.792L645.675 434.229C653.279 436.206 661.188 433.925 666.51 428.146 671.681 422.367 673.354 414.002 670.465 406.702Z" fill="#FFFFFF"/><path d="M669.856 497.04 630.619 457.802 614.802 473.619 652.823 511.64 654.192 513.008 654.344 512.856C658.754 516.05 664.838 515.442 668.64 511.64 672.442 507.685 672.898 501.602 669.856 497.04L669.856 497.04Z" fill="#FFFFFF"/><path d="M572.371 411.112 572.523 410.96 568.569 403.66 555.49 393.167 550.167 398.49 560.66 411.569 567.96 415.523 568.112 415.371 597.16 444.419 601.419 440.16Z" fill="#FFFFFF"/></g></svg>