<svg width="293" height="293" xmlns="http://www.w3.org/2000/svg" xmlns:xlink="http://www.w3.org/1999/xlink" overflow="hidden"><defs><clipPath id="clip0"><rect x="640" y="109" width="293" height="293"/></clipPath></defs><g clip-path="url(#clip0)" transform="translate(-640 -109)"><path d="M883.734 377.993 909.394 352.34 917.093 385.692 883.734 377.993ZM796.417 294.159 786.706 284.447 757.564 255.305 747.852 245.594 687.734 185.475 716.87 156.333 776.987 216.451 786.706 226.163 815.841 255.305 825.553 265.017 901.419 340.884 872.284 370.026 796.417 294.159ZM700.145 371.001 677.13 380.864 661.141 364.874 671.01 341.845 747.845 265.017 776.987 294.159 700.145 371.001ZM658.551 156.292C655.914 153.648 655.921 149.293 658.592 146.615L678.016 127.191C680.715 124.499 685.028 124.492 687.693 127.15L707.158 146.615 678.016 175.757 658.551 156.292ZM868.26 144.609 897.402 173.744 825.553 245.594 796.417 216.444 868.26 144.609ZM904.696 122.741C904.716 122.727 904.661 122.727 904.716 122.782L919.229 137.295C919.271 137.336 919.271 137.308 919.271 137.315L899.833 156.746 885.265 142.178 904.696 122.741ZM920.85 340.884 835.272 255.305 892.36 198.216 897.711 203.573C900.396 206.259 900.396 210.606 897.697 213.306L870.746 240.25C868.068 242.935 868.068 247.283 870.746 249.962 873.431 252.647 877.779 252.647 880.458 249.962L907.409 223.024C915.472 214.961 915.479 201.912 907.43 193.861L902.072 188.504 907.113 183.456 916.825 173.744 909.545 166.464 928.982 147.027C934.373 141.622 934.318 132.961 928.941 127.576L914.428 113.063C908.995 107.631 900.341 107.672 894.984 113.029L875.547 132.466 868.26 125.179 858.548 134.891 858.541 134.891 858.541 134.898 786.706 206.733 697.405 117.439C689.362 109.403 676.354 109.43 668.304 117.48L648.881 136.903C640.859 144.925 640.81 157.982 648.839 166.004L668.304 185.469 670.159 187.323 678.016 195.187 738.134 255.305 659.423 334.015 644.856 368.013 654.568 377.725 640 392.293 649.712 402.004 664.279 387.437 673.998 397.148 707.996 382.581 786.706 303.871 862.566 379.737 872.278 389.449 922.031 400.933C929.367 402.623 934.037 398.021 932.327 390.63L920.85 340.884Z" fill="#f0f8ff" fill-rule="evenodd"/></g></svg>