<svg width="329" height="316" xmlns="http://www.w3.org/2000/svg" xmlns:xlink="http://www.w3.org/1999/xlink" overflow="hidden"><defs><clipPath id="clip0"><rect x="221" y="109" width="329" height="316"/></clipPath></defs><g clip-path="url(#clip0)" transform="translate(-221 -109)"><path d="M313.333 292.097C313.333 296.479 309.785 300.048 305.469 300.048L23.5313 300.048C19.176 300.048 15.6667 296.511 15.6667 292.097L15.6667 118.44 15.6667 86.856 15.6667 78.96 39.1667 78.96 86.1664 78.96 109.667 78.96 133.167 78.96 231.553 78.96 313.333 78.96 313.333 118.44 313.333 292.097ZM23.5313 15.792 39.1667 15.792 86.1664 15.792 109.667 15.792 133.167 15.792 305.469 15.792C309.8 15.792 313.294 19.3057 313.326 23.688 313.326 23.7038 313.333 23.7196 313.333 23.7433L313.333 63.168 133.167 63.168 109.667 63.168 86.1664 63.168 39.1667 63.168 15.6667 63.168 15.6667 23.7433C15.6667 23.7196 15.6745 23.7038 15.6745 23.688 15.7058 19.3373 19.2308 15.792 23.5313 15.792L23.5313 15.792ZM305.469 0C318.448 0 328.961 10.5727 328.992 23.688 328.992 23.7038 329 23.7275 329 23.7433L329 23.7433 329 292.097C329 305.212 318.425 315.84 305.469 315.84L305.469 315.84 23.5313 315.84C10.5358 315.84 0 305.236 0 292.097L0 292.097 0.00391667 23.7156 0.00391667 23.7156C0.0313333 13.3995 6.59566 4.7297 15.6667 1.46076 18.1342 0.568512 20.7583 0 23.5313 0L23.5313 0ZM180.165 112.069C178.927 112.93 177.838 114.043 177.251 115.559L176.139 118.441 149.702 186.521 125.872 247.92C124.29 251.978 126.279 256.558 130.314 258.145 134.348 259.732 138.891 257.727 140.466 253.676L149.702 229.862 180.165 151.383 191.837 121.315C192.205 120.368 192.338 119.397 192.338 118.441 192.338 115.283 190.498 112.298 187.403 111.082 184.881 110.087 182.241 110.624 180.165 112.069ZM97.1675 136.544 86.1697 147.63 58.432 175.582C55.3691 178.669 55.3691 183.668 58.432 186.747L86.1697 214.707 97.1675 225.801C100.231 228.88 105.181 228.88 108.244 225.801 111.307 222.713 111.307 217.707 108.244 214.636L86.1697 192.377 75.0462 181.165 86.1697 169.96 108.244 147.709C111.307 144.622 111.307 139.632 108.244 136.544 105.181 133.457 100.231 133.457 97.1675 136.544ZM221.628 136.544C218.566 139.632 218.566 144.622 221.628 147.709L231.553 157.713 254.818 181.165 231.553 204.631 221.628 214.636C218.566 217.707 218.566 222.713 221.628 225.801 224.346 228.533 228.498 228.706 231.553 226.566 231.929 226.306 232.36 226.148 232.705 225.801L271.441 186.747C274.504 183.668 274.504 178.669 271.441 175.582L232.705 136.544C232.36 136.205 231.929 136.039 231.553 135.77 228.498 133.646 224.346 133.796 221.628 136.544ZM39.1667 31.5824C34.8349 31.5824 31.3333 35.1119 31.3333 39.4784 31.3333 43.8449 34.8349 47.3744 39.1667 47.3744 43.4985 47.3744 47 43.8449 47 39.4784 47 35.1119 43.4985 31.5824 39.1667 31.5824ZM62.6667 31.5824C58.3349 31.5824 54.8333 35.1119 54.8333 39.4784 54.8333 43.8449 58.3349 47.3744 62.6667 47.3744 66.9982 47.3744 70.5001 43.8449 70.5001 39.4784 70.5001 35.1119 66.9982 31.5824 62.6667 31.5824ZM86.1664 31.5824C81.8348 31.5824 78.3336 35.1119 78.3336 39.4784 78.3336 43.8449 81.8348 47.3744 86.1664 47.3744 90.4987 47.3744 93.9999 43.8449 93.9999 39.4784 93.9999 35.1119 90.4987 31.5824 86.1664 31.5824Z" fill="#f0f8ff" fill-rule="evenodd" transform="matrix(1 0 0 1.00051 221 109)"/></g></svg>